<?xml version="1.0" encoding="utf-8"?>
<!-- Generator: Adobe Illustrator 16.0.0, SVG Export Plug-In . SVG Version: 6.00 Build 0)  -->
<!DOCTYPE svg PUBLIC "-//W3C//DTD SVG 1.1//EN" "http://www.w3.org/Graphics/SVG/1.1/DTD/svg11.dtd">
<svg version="1.1" id="Layer_4" xmlns="http://www.w3.org/2000/svg" xmlns:xlink="http://www.w3.org/1999/xlink" x="0px" y="0px"
	 width="284.739px" height="261.855px" viewBox="0 0 284.739 261.855" enable-background="new 0 0 284.739 261.855"
	 xml:space="preserve">
<g>
	<path fill="#E7F4FC" d="M96.779,261.855c-16.5,0-36.75-11.691-45-25.98L6.188,156.909c-8.25-14.289-8.25-37.672,0-51.961
		L51.779,25.98c8.25-14.289,28.5-25.98,45-25.98h91.182c16.5,0,36.75,11.691,45,25.98l45.591,78.968
		c8.25,14.289,8.25,37.672,0,51.961l-45.591,78.966c-8.25,14.289-28.5,25.98-45,25.98H96.779z"/>
	<g>
		<g>
			<path fill="#D8E5ED" d="M231.487,217.906c0,2.951-2.391,5.342-5.342,5.342H66.271c-2.953,0-5.343-2.391-5.343-5.342v-109.41
				c0-2.951,2.39-5.344,5.343-5.344h159.873c2.951,0,5.342,2.393,5.342,5.344V217.906z"/>
			<path fill="#477CA8" d="M226.145,224.748H66.271c-3.773,0-6.843-3.069-6.843-6.842v-109.41c0-3.773,3.07-6.844,6.843-6.844
				h159.873c3.773,0,6.842,3.07,6.842,6.844v109.41C232.987,221.679,229.917,224.748,226.145,224.748z M66.271,104.652
				c-2.119,0-3.843,1.725-3.843,3.844v109.41c0,2.118,1.724,3.842,3.843,3.842h159.873c2.119,0,3.842-1.724,3.842-3.842v-109.41
				c0-2.119-1.724-3.844-3.842-3.844H66.271z"/>
		</g>
		<g>
			<rect x="69.291" y="110.819" fill="#FFFFFF" width="153.834" height="98.19"/>
			<path fill="#477CA8" d="M224.126,210.01H68.292v-100.19h155.834V210.01z M70.292,208.01h151.834v-96.19H70.292V208.01z"/>
		</g>
		<g>
			<rect x="31.626" y="217.197" fill="#FFFFFF" width="229.162" height="6.705"/>
			<path fill="#477CA8" d="M262.289,225.402H30.126v-9.705h232.162V225.402z M33.126,222.402h226.162v-3.705H33.126V222.402z"/>
		</g>
		<g>
			<path fill="#D8E5ED" stroke="#477CA8" stroke-width="3" stroke-linejoin="bevel" d="M31.963,223.902
				c2.706,2.867,7.691,3.992,11.128,3.992h206.231c3.437,0,8.421-1.125,11.128-3.992H31.963z"/>
		</g>
		<g>
			<path fill="#477CA8" d="M130.643,217.197v0.719c0,1.324,1.071,2.396,2.393,2.396h26.344c1.322,0,2.396-1.072,2.396-2.396v-0.719
				H130.643z"/>
		</g>
	</g>
	<g>
		<g>
			<path fill="#FFFFFF" d="M109.946,90.283c0,1.572-1.274,2.848-2.846,2.848H28.822c-1.572,0-2.847-1.275-2.847-2.848V24.814
				c0-1.572,1.275-2.846,2.847-2.846H107.1c1.572,0,2.846,1.273,2.846,2.846V90.283z"/>
			<path fill="#477CA8" d="M107.1,94.631H28.822c-2.397,0-4.347-1.95-4.347-4.348V24.814c0-2.396,1.95-4.346,4.347-4.346H107.1
				c2.396,0,4.346,1.949,4.346,4.346v65.469C111.446,92.681,109.497,94.631,107.1,94.631z M28.822,23.469
				c-0.743,0-1.347,0.604-1.347,1.346v65.469c0,0.743,0.604,1.348,1.347,1.348H107.1c0.742,0,1.346-0.604,1.346-1.348V24.814
				c0-0.742-0.604-1.346-1.346-1.346H28.822z"/>
		</g>
		<path fill="#F5B1AE" d="M25.975,32.262v-7.447c0-1.572,1.275-2.846,2.847-2.846H107.1c1.572,0,2.846,1.273,2.846,2.846v7.447
			H25.975z"/>
		<rect x="58.751" y="43.311" fill="#B0D9EF" width="5.693" height="5.693"/>
		<rect x="70.137" y="43.311" fill="#B0D9EF" width="5.693" height="5.693"/>
		<rect x="81.523" y="43.311" fill="#B0D9EF" width="5.692" height="5.693"/>
		<rect x="92.909" y="43.311" fill="#B0D9EF" width="5.692" height="5.693"/>
		<rect x="35.979" y="54.695" fill="#B0D9EF" width="5.692" height="5.693"/>
		<rect x="47.365" y="54.695" fill="#B0D9EF" width="5.693" height="5.693"/>
		<g>
			<rect x="58.751" y="54.695" fill="#B0D9EF" width="5.693" height="5.693"/>
			<path fill="#477CA8" d="M65.444,61.389h-7.693v-7.693h7.693V61.389z M59.751,59.389h3.693v-3.693h-3.693V59.389z"/>
		</g>
		<g>
			<rect x="70.137" y="54.695" fill="#B0D9EF" width="5.693" height="5.693"/>
			<path fill="#477CA8" d="M76.83,61.389h-7.693v-7.693h7.693V61.389z M71.137,59.389h3.693v-3.693h-3.693V59.389z"/>
		</g>
		<g>
			<rect x="81.523" y="54.695" fill="#B0D9EF" width="5.692" height="5.693"/>
			<path fill="#477CA8" d="M88.216,61.389h-7.692v-7.693h7.692V61.389z M82.523,59.389h3.692v-3.693h-3.692V59.389z"/>
		</g>
		<g>
			<rect x="92.909" y="54.695" fill="#B0D9EF" width="5.692" height="5.693"/>
			<path fill="#477CA8" d="M99.602,61.389h-7.692v-7.693h7.692V61.389z M93.909,59.389h3.692v-3.693h-3.692V59.389z"/>
		</g>
		<rect x="35.979" y="66.082" fill="#B0D9EF" width="5.692" height="5.693"/>
		<rect x="47.365" y="66.082" fill="#B0D9EF" width="5.693" height="5.693"/>
		<rect x="58.751" y="66.082" fill="#B0D9EF" width="5.693" height="5.693"/>
		<rect x="70.137" y="66.082" fill="#B0D9EF" width="5.693" height="5.693"/>
		<rect x="81.523" y="66.082" fill="#B0D9EF" width="5.692" height="5.693"/>
		<rect x="92.909" y="66.082" fill="#B0D9EF" width="5.692" height="5.693"/>
		<rect x="35.979" y="77.467" fill="#B0D9EF" width="5.692" height="5.693"/>
		<rect x="47.365" y="77.467" fill="#B0D9EF" width="5.693" height="5.693"/>
		<rect x="58.751" y="77.467" fill="#B0D9EF" width="5.693" height="5.693"/>
		<g>
			<rect x="37.402" y="45.156" fill="#477CA8" width="2.847" height="2"/>
		</g>
		<g>
			<rect x="48.788" y="45.156" fill="#477CA8" width="2.847" height="2"/>
		</g>
		<g>
			<rect x="94.332" y="79.314" fill="#477CA8" width="2.847" height="2"/>
		</g>
		<g>
			<rect x="82.946" y="79.314" fill="#477CA8" width="2.847" height="2"/>
		</g>
		<g>
			<rect x="71.561" y="79.314" fill="#477CA8" width="2.847" height="2"/>
		</g>
		<g>
			<rect x="57.287" y="26.662" fill="#477CA8" width="25.618" height="2"/>
		</g>
		<g>
			<rect x="31.669" y="26.662" fill="#477CA8" width="2.845" height="2"/>
		</g>
		<g>
			<rect x="101.407" y="26.662" fill="#477CA8" width="2.847" height="2"/>
		</g>
		<g>
			<path fill="#477CA8" d="M107.1,94.631H28.822c-2.397,0-4.347-1.95-4.347-4.348V24.814c0-2.396,1.95-4.346,4.347-4.346H107.1
				c2.396,0,4.346,1.949,4.346,4.346v65.469C111.446,92.681,109.497,94.631,107.1,94.631z M28.822,23.469
				c-0.743,0-1.347,0.604-1.347,1.346v65.469c0,0.743,0.604,1.348,1.347,1.348H107.1c0.742,0,1.346-0.604,1.346-1.348V24.814
				c0-0.742-0.604-1.346-1.346-1.346H28.822z"/>
		</g>
		<g>
			<rect x="25.975" y="32.354" fill="#477CA8" width="83.971" height="2"/>
		</g>
	</g>
	<g>
		<path fill="#477CA8" d="M216.34,161.27h-3.307v-1.728l-0.504-0.873l1.732-1L216.34,161.27z M209.034,161.27h-4v-2h4V161.27z
			 M201.034,161.27h-4v-2h4V161.27z M193.034,161.27h-4v-2h4V161.27z M185.034,161.27h-4v-2h4V161.27z M177.034,161.27h-4v-2h4
			V161.27z M169.034,161.27h-4v-2h4V161.27z M161.034,161.27h-4v-2h4V161.27z M153.034,161.27h-4v-2h4V161.27z M145.034,161.27h-4
			v-2h4V161.27z M137.034,161.27h-4v-2h4V161.27z M129.034,161.27h-4v-2h4V161.27z M121.034,161.27h-4v-2h4V161.27z M113.034,161.27
			h-4v-2h4V161.27z M105.034,161.27h-4v-2h4V161.27z M97.034,161.27h-4v-2h4V161.27z M94.622,158.043l-1.732-1l2-3.464l1.732,1
			L94.622,158.043z M210.53,155.205l-2-3.464l1.732-1l2,3.464L210.53,155.205z M98.623,151.115l-1.732-1l2-3.465l1.732,1
			L98.623,151.115z M206.53,148.276l-2-3.464l1.732-1l2,3.464L206.53,148.276z M102.623,144.187l-1.732-1l2-3.464l1.732,1
			L102.623,144.187z M202.53,141.349l-2-3.464l1.732-1l2,3.464L202.53,141.349z M106.623,137.259l-1.732-1l2-3.464l1.732,1
			L106.623,137.259z M198.53,134.42l-2-3.464l1.732-1l2,3.464L198.53,134.42z M110.623,130.33l-1.732-1l2-3.464l1.732,1
			L110.623,130.33z M194.53,127.492l-2-3.464l1.732-1l2,3.464L194.53,127.492z M114.623,123.402l-1.732-1l2-3.464l1.732,1
			L114.623,123.402z M190.53,120.563l-2-3.464l1.732-1l2,3.464L190.53,120.563z M118.623,116.474l-1.732-1l2-3.464l1.732,1
			L118.623,116.474z M186.53,113.636l-2-3.464l1.732-1l2,3.464L186.53,113.636z M122.623,109.546l-1.732-1l2-3.464l1.732,1
			L122.623,109.546z M182.53,106.708l-2-3.465l1.732-1l2,3.465L182.53,106.708z M126.623,102.618l-1.732-1l2-3.465l1.732,1
			L126.623,102.618z M178.53,99.779l-2-3.464l1.732-1l2,3.464L178.53,99.779z M130.623,95.689l-1.732-1l2-3.464l1.732,1
			L130.623,95.689z M174.529,92.852l-2-3.465l1.732-1l2,3.465L174.529,92.852z M134.623,88.762l-1.732-1l2-3.465l1.732,1
			L134.623,88.762z M170.53,85.923l-2-3.464l1.731-1l2,3.464L170.53,85.923z M138.623,81.833l-1.732-1l2-3.464l1.732,1
			L138.623,81.833z M166.529,78.995l-2-3.465l1.732-1l2,3.465L166.529,78.995z M142.623,74.905l-1.732-1l2-3.465l1.732,1
			L142.623,74.905z M162.53,72.066l-2-3.464l1.731-1l2,3.464L162.53,72.066z M146.623,67.977l-1.731-1l2-3.464l1.731,1
			L146.623,67.977z M158.529,65.139l-2-3.465l1.732-1l2,3.465L158.529,65.139z M150.623,61.049l-1.732-1l2-3.465l1.732,1
			L150.623,61.049z M154.53,58.21l-2-3.464l1.731-1l2,3.464L154.53,58.21z"/>
	</g>
	<g>
		<circle fill="#B0D9EF" cx="153.396" cy="55.523" r="33.749"/>
		<path fill="#477CA8" d="M153.396,90.771c-19.436,0-35.249-15.812-35.249-35.248s15.812-35.248,35.249-35.248
			s35.249,15.812,35.249,35.248S172.832,90.771,153.396,90.771z M153.396,23.275c-17.782,0-32.249,14.467-32.249,32.248
			s14.467,32.248,32.249,32.248s32.249-14.467,32.249-32.248S171.177,23.275,153.396,23.275z"/>
	</g>
	<g>
		<g>
			<circle fill="#B0D9EF" cx="86.649" cy="159.018" r="33.749"/>
			<path fill="#477CA8" d="M86.649,194.268c-19.436,0-35.249-15.813-35.249-35.25c0-19.436,15.812-35.248,35.249-35.248
				s35.249,15.812,35.249,35.248C121.897,178.454,106.085,194.268,86.649,194.268z M86.649,126.77
				c-17.782,0-32.249,14.467-32.249,32.248c0,17.782,14.467,32.25,32.249,32.25s32.249-14.468,32.249-32.25
				C118.897,141.236,104.431,126.77,86.649,126.77z"/>
		</g>
		<g>
			<circle fill="#D8E9C9" cx="220.142" cy="159.018" r="33.748"/>
			<path fill="#477CA8" d="M220.142,194.268c-19.436,0-35.249-15.813-35.249-35.25c0-19.436,15.812-35.248,35.249-35.248
				c19.436,0,35.248,15.812,35.248,35.248C255.39,178.454,239.578,194.268,220.142,194.268z M220.142,126.77
				c-17.782,0-32.249,14.467-32.249,32.248c0,17.782,14.467,32.25,32.249,32.25s32.248-14.468,32.248-32.25
				C252.39,141.236,237.924,126.77,220.142,126.77z"/>
		</g>
	</g>
	<g>
		<polygon fill="#477CA8" points="217.239,167.693 211.309,161.762 213.43,159.641 217.239,163.451 230.788,149.902 
			232.909,152.023 		"/>
	</g>
	<g>
		<path fill="#FFFFFF" d="M92.941,166.17H80.59v-2.598l4.435-4.484c1.313-1.345,2.171-2.277,2.574-2.797s0.693-1.001,0.87-1.444
			c0.177-0.442,0.266-0.901,0.266-1.378c0-0.709-0.195-1.236-0.586-1.582c-0.391-0.348-0.913-0.521-1.565-0.521
			c-0.685,0-1.35,0.157-1.994,0.472s-1.317,0.762-2.018,1.342l-2.03-2.406c0.87-0.74,1.591-1.264,2.163-1.57
			c0.572-0.307,1.196-0.541,1.873-0.707c0.677-0.165,1.434-0.248,2.272-0.248c1.104,0,2.079,0.201,2.925,0.604
			c0.846,0.403,1.502,0.967,1.97,1.692c0.467,0.725,0.701,1.555,0.701,2.489c0,0.813-0.144,1.577-0.429,2.29
			c-0.286,0.713-0.729,1.443-1.33,2.193s-1.658,1.816-3.172,3.203l-2.272,2.139v0.169h7.698V166.17z"/>
	</g>
	<g>
		<path fill="#FFFFFF" d="M156.823,60.17h-3.734V49.947l0.036-1.681l0.061-1.837c-0.621,0.621-1.051,1.027-1.293,1.221l-2.03,1.631
			l-1.801-2.247l5.692-4.532h3.07V60.17z"/>
	</g>
</g>
</svg>
