<?xml version="1.0" encoding="utf-8"?>
<!-- Generator: Adobe Illustrator 16.0.0, SVG Export Plug-In . SVG Version: 6.00 Build 0)  -->
<!DOCTYPE svg PUBLIC "-//W3C//DTD SVG 1.1//EN" "http://www.w3.org/Graphics/SVG/1.1/DTD/svg11.dtd">
<svg version="1.1" id="Layer_4" xmlns="http://www.w3.org/2000/svg" xmlns:xlink="http://www.w3.org/1999/xlink" x="0px" y="0px"
	 width="283.536px" height="283.535px" viewBox="0 0 283.536 283.535" enable-background="new 0 0 283.536 283.535"
	 xml:space="preserve">
<g>
	<path fill="#E7F4FC" d="M195.039,273.656c-7.778,7.778-22.835,11.813-33.46,8.966L54.185,253.847
		c-10.625-2.848-21.647-13.87-24.495-24.495L0.914,121.957c-2.847-10.625,1.188-25.683,8.966-33.461L88.496,9.88
		c7.778-7.778,22.835-11.813,33.46-8.966l107.395,28.775c10.625,2.848,21.647,13.87,24.495,24.495l28.776,107.394
		c2.847,10.625-1.188,25.683-8.966,33.461L195.039,273.656z"/>
	<g>
		<g>
			<path fill="#D8E5ED" d="M102.435,211.768v18c0,5.523-4.478,10-10,10h59.999c-5.522,0-10-4.477-10-10v-18H102.435z"/>
			<path fill="#477CA8" d="M152.434,241.268H92.435v-3c4.687,0,8.5-3.813,8.5-8.5v-19.5h42.999v19.5c0,4.687,3.813,8.5,8.5,8.5
				V241.268z M100.173,238.268h44.522c-2.31-2.104-3.762-5.136-3.762-8.5v-16.5h-36.999v16.5
				C103.935,233.132,102.483,236.163,100.173,238.268z"/>
		</g>
		<g>
			<g>
				<path fill="#D8E5ED" d="M214.342,193.391V84.814c0-2.803-2.282-5.084-5.087-5.084H33.803c-2.803,0-5.083,2.281-5.083,5.084
					v108.576H214.342z"/>
				<path fill="#477CA8" d="M215.842,194.891H27.22V84.814c0-3.631,2.953-6.584,6.583-6.584h175.452
					c3.632,0,6.587,2.953,6.587,6.584V194.891z M30.22,191.891h182.622V84.814c0-1.977-1.609-3.584-3.587-3.584H33.803
					c-1.976,0-3.583,1.607-3.583,3.584V191.891z"/>
			</g>
			<rect x="38.512" y="89.749" fill="#FFFFFF" width="165.846" height="93.507"/>
			<g>
				<path fill="#FFFFFF" d="M28.613,193.281v15.656c0,3.002,3.078,6.348,6.078,6.348h175.027c3.004,0,4.798-3.086,4.798-6.09
					v-15.914H28.613z"/>
				<path fill="#477CA8" d="M209.719,216.785H34.691c-3.754,0-7.578-3.961-7.578-7.848v-17.156h188.903v17.414
					C216.017,212.926,213.661,216.785,209.719,216.785z M30.113,194.781v14.156c0,2.22,2.481,4.848,4.578,4.848h175.027
					c2.064,0,3.298-2.334,3.298-4.59v-14.414H30.113z"/>
			</g>
		</g>
	</g>
	<g>
		<polygon fill="#B0D9EF" points="194.768,173.268 82.268,173.268 82.268,102.768 83.268,102.768 83.268,172.268 194.768,172.268 		
			"/>
	</g>
	<g>
		<path fill="#B2DDC9" d="M61.48,130.096c-3.08,0-5.99-1.102-8.281-3.117l8.698-8.699h12.116c-0.176,3.077-1.459,5.941-3.655,8.139
			C67.986,128.79,64.834,130.096,61.48,130.096z"/>
		<path fill="#F5B1AE" d="M62.298,116.371v-11.36c6.195,0.39,11.119,5.181,11.68,11.36H62.298z"/>
		<g>
			<path fill="#477CA8" d="M61.429,133.721c-3.961,0-7.773-1.447-10.733-4.076l1.328-1.496c2.594,2.304,5.934,3.572,9.405,3.572
				c7.815,0,14.172-6.357,14.172-14.172c0-7.578-5.924-13.796-13.487-14.155l0.095-1.998c8.631,0.41,15.392,7.506,15.392,16.153
				C77.602,126.466,70.347,133.721,61.429,133.721z"/>
		</g>
		<g>
			<path fill="#FFFFFF" d="M49.553,126.628c-1.99-2.601-3.076-5.785-3.076-9.079c0-7.458,5.555-13.762,12.831-14.799v13.919
				L49.553,126.628z"/>
			<path fill="#477CA8" d="M58.309,103.952v12.309l-8.628,8.809c-1.431-2.233-2.203-4.838-2.203-7.521
				C47.478,110.985,52.088,105.38,58.309,103.952L58.309,103.952z M60.309,101.64c-8.286,0.576-14.831,7.476-14.831,15.909
				c0,4.058,1.518,7.758,4.012,10.573l10.819-11.045V101.64L60.309,101.64z"/>
		</g>
	</g>
	<g>
		<g>
			<rect x="49.768" y="139.769" fill="#F5B1AE" width="6.667" height="2"/>
		</g>
		<g>
			<rect x="59.519" y="139.769" fill="#477CA8" width="14.167" height="2"/>
		</g>
		<g>
			<rect x="49.768" y="145.269" fill="#B2DDC9" width="6.667" height="2"/>
		</g>
		<g>
			<rect x="59.519" y="145.269" fill="#477CA8" width="14.167" height="2"/>
		</g>
		<g>
			<rect x="49.768" y="150.769" fill="#D8E5ED" width="6.667" height="2"/>
		</g>
		<g>
			<rect x="59.519" y="150.769" fill="#477CA8" width="14.167" height="2"/>
		</g>
	</g>
	<g>
		<g>
			<rect x="82.768" y="108.602" fill="#D8E5ED" width="107.334" height="1"/>
		</g>
		<g>
			<rect x="82.768" y="117.936" fill="#D8E5ED" width="107.334" height="1"/>
		</g>
		<g>
			<rect x="82.768" y="127.27" fill="#D8E5ED" width="107.334" height="1"/>
		</g>
		<g>
			<rect x="82.768" y="136.603" fill="#D8E5ED" width="107.334" height="1"/>
		</g>
		<g>
			<rect x="82.768" y="145.936" fill="#D8E5ED" width="107.334" height="1"/>
		</g>
		<g>
			<rect x="82.768" y="155.27" fill="#D8E5ED" width="107.334" height="1"/>
		</g>
		<g>
			<rect x="82.768" y="164.604" fill="#D8E5ED" width="107.334" height="1"/>
		</g>
	</g>
	<g>
		<g>
			<g>
				<rect x="146.602" y="172.891" fill="#D8E5ED" width="1" height="3.75"/>
			</g>
			<g>
				<rect x="137.269" y="172.891" fill="#D8E5ED" width="1" height="3.75"/>
			</g>
			<g>
				<rect x="127.935" y="172.891" fill="#D8E5ED" width="1" height="3.75"/>
			</g>
			<g>
				<rect x="118.602" y="172.891" fill="#D8E5ED" width="1" height="3.75"/>
			</g>
			<g>
				<rect x="109.268" y="172.891" fill="#D8E5ED" width="1" height="3.75"/>
			</g>
			<g>
				<rect x="99.934" y="172.891" fill="#D8E5ED" width="1" height="3.75"/>
			</g>
			<g>
				<rect x="90.6" y="172.891" fill="#D8E5ED" width="1" height="3.75"/>
			</g>
		</g>
		<g>
			<g>
				<rect x="193.268" y="172.891" fill="#D8E5ED" width="1" height="3.75"/>
			</g>
			<g>
				<rect x="183.935" y="172.891" fill="#D8E5ED" width="1" height="3.75"/>
			</g>
			<g>
				<rect x="174.601" y="172.891" fill="#D8E5ED" width="1" height="3.75"/>
			</g>
			<g>
				<rect x="165.267" y="172.891" fill="#D8E5ED" width="1" height="3.75"/>
			</g>
			<g>
				<rect x="155.932" y="172.891" fill="#D8E5ED" width="1" height="3.75"/>
			</g>
		</g>
	</g>
	<g>
		<polygon fill="#F5B1AE" points="83.519,165.066 82.017,162.469 127.53,136.15 155.285,144.108 188.796,116.591 190.7,118.909 
			155.971,147.427 127.929,139.385 		"/>
	</g>
	<g>
		<polygon fill="#B2DDC9" points="134.479,156.005 109.073,140.895 83.182,152.678 82.354,150.857 109.196,138.641 134.23,153.53 
			162.767,127.641 188.537,135.814 187.932,137.721 163.259,129.895 		"/>
	</g>
	<g>
		<rect x="158.768" y="238.268" fill="#477CA8" width="57" height="3"/>
	</g>
	<g>
		<rect x="47.768" y="238.268" fill="#477CA8" width="38" height="3"/>
	</g>
	<g>
		<g>
			<path fill="#D8E5ED" d="M260.795,106.668v29.021c0,1.691-1.371,3.062-3.062,3.062h-58.891c-1.691,0-3.062-1.371-3.062-3.062
				V45.314c0-1.691,1.371-3.062,3.062-3.062h58.891c1.691,0,3.062,1.371,3.062,3.062v63.447V106.668z"/>
			<path fill="#477CA8" d="M257.732,140.252h-58.891c-2.516,0-4.562-2.047-4.562-4.562V45.314c0-2.516,2.047-4.562,4.562-4.562
				h58.891c2.516,0,4.562,2.047,4.562,4.562v90.375C262.295,138.205,260.248,140.252,257.732,140.252z M198.842,43.752
				c-0.861,0-1.562,0.701-1.562,1.562v90.375c0,0.861,0.701,1.562,1.562,1.562h58.891c0.861,0,1.562-0.701,1.562-1.562V45.314
				c0-0.861-0.701-1.562-1.562-1.562H198.842z"/>
		</g>
		<rect x="201.076" y="55.273" fill="#FFFFFF" width="54.421" height="69.695"/>
		<g>
			<g>
				<path fill="#D8E5ED" d="M220.1,49.096h16.375H220.1z"/>
				<rect x="220.1" y="47.596" fill="#477CA8" width="16.375" height="3"/>
			</g>
		</g>
		<g>
			<path fill="#D8E5ED" d="M226.287,130.764h4H226.287z"/>
			<rect x="226.287" y="129.264" fill="#477CA8" width="4" height="3"/>
		</g>
	</g>
	<g>
		<polygon fill="#B0D9EF" points="248.435,116.268 207.601,116.268 207.601,65.102 208.601,65.102 208.601,115.268 248.435,115.268 
					"/>
	</g>
	<g>
		<polygon fill="#B2DDC9" points="209.508,115.44 208.027,114.095 218.594,102.472 229.783,109.592 244.253,100.91 245.282,102.625 
			229.752,111.943 218.941,105.063 		"/>
	</g>
	<g>
		<g>
			<rect x="212.435" y="65.102" fill="#F5B1AE" width="6.667" height="2"/>
		</g>
		<g>
			<rect x="222.186" y="65.102" fill="#477CA8" width="14.167" height="2"/>
		</g>
		<g>
			<rect x="212.435" y="70.602" fill="#B2DDC9" width="6.667" height="2"/>
		</g>
		<g>
			<rect x="222.186" y="70.602" fill="#477CA8" width="14.167" height="2"/>
		</g>
		<g>
			<rect x="212.435" y="76.102" fill="#D8E5ED" width="6.667" height="2"/>
		</g>
		<g>
			<rect x="222.186" y="76.102" fill="#477CA8" width="14.167" height="2"/>
		</g>
	</g>
	<g>
		<polygon fill="#F5B1AE" points="209.663,102.412 207.694,100.148 219.25,90.096 235.814,94.988 247.457,74.039 250.079,75.496 
			237.27,98.547 219.977,93.439 		"/>
	</g>
</g>
</svg>
