<?xml version="1.0" encoding="utf-8"?>
<!-- Generator: Adobe Illustrator 16.0.0, SVG Export Plug-In . SVG Version: 6.00 Build 0)  -->
<!DOCTYPE svg PUBLIC "-//W3C//DTD SVG 1.1//EN" "http://www.w3.org/Graphics/SVG/1.1/DTD/svg11.dtd">
<svg version="1.1" id="Layer_4" xmlns="http://www.w3.org/2000/svg" xmlns:xlink="http://www.w3.org/1999/xlink" x="0px" y="0px"
	 width="283.536px" height="283.535px" viewBox="0 0 283.536 283.535" enable-background="new 0 0 283.536 283.535"
	 xml:space="preserve">
<g>
	<path fill="#E7F4FC" d="M195.038,273.656c-7.777,7.777-22.834,11.812-33.459,8.965L54.185,253.846
		C43.56,251,32.536,239.977,29.69,229.352L0.913,121.957c-2.847-10.625,1.188-25.682,8.967-33.461L88.497,9.879
		c7.777-7.777,22.835-11.812,33.46-8.965l107.395,28.775c10.625,2.848,21.647,13.87,24.495,24.495l28.775,107.394
		c2.848,10.625-1.188,25.684-8.966,33.461L195.038,273.656z"/>
	<g>
		<path fill="#477CA8" d="M139.552,140.768h-2v-4h2V140.768z M139.552,132.768h-2v-4h2V132.768z M139.552,124.768h-2v-4h2V124.768z
			 M139.552,116.768h-2v-4h2V116.768z M139.552,108.768h-2v-4h2V108.768z M139.552,100.768h-2v-4h2V100.768z M139.552,92.768h-2v-4
			h2V92.768z M139.552,84.768h-2v-4h2V84.768z M139.552,76.768h-2v-4h2V76.768z"/>
	</g>
	<g>
		<path fill="#477CA8" d="M151.959,141.674l-0.852-1.809l3.619-1.704l0.852,1.809L151.959,141.674z M159.196,138.265l-0.852-1.809
			l3.619-1.704l0.852,1.809L159.196,138.265z M166.434,134.855l-0.852-1.809l3.619-1.704l0.852,1.809L166.434,134.855z
			 M173.671,131.447l-0.852-1.809l3.619-1.705l0.852,1.809L173.671,131.447z M180.908,128.038l-0.852-1.809l3.619-1.704l0.852,1.809
			L180.908,128.038z M188.146,124.629l-0.852-1.809l3.619-1.704l0.852,1.809L188.146,124.629z M195.383,121.22l-0.852-1.809
			l3.619-1.704l0.852,1.809L195.383,121.22z M202.62,117.812l-0.852-1.809l3.619-1.705l0.852,1.809L202.62,117.812z
			 M209.857,114.402l-0.852-1.809l3.619-1.705l0.852,1.809L209.857,114.402z M217.095,110.993l-0.852-1.809l3.619-1.704l0.852,1.809
			L217.095,110.993z M224.332,107.584l-0.852-1.809l3.619-1.704l0.852,1.809L224.332,107.584z M231.569,104.175l-0.852-1.809
			l3.619-1.704l0.852,1.809L231.569,104.175z"/>
	</g>
	<g>
		<path fill="#477CA8" d="M127.104,141.674l-3.619-1.704l0.852-1.809l3.619,1.704L127.104,141.674z M119.866,138.265l-3.619-1.704
			l0.852-1.809l3.619,1.704L119.866,138.265z M112.629,134.855l-3.619-1.704l0.852-1.809l3.619,1.704L112.629,134.855z
			 M105.392,131.447l-3.619-1.705l0.852-1.809l3.619,1.705L105.392,131.447z M98.154,128.038l-3.619-1.704l0.852-1.809l3.619,1.704
			L98.154,128.038z M90.917,124.629l-3.619-1.704l0.852-1.809l3.619,1.704L90.917,124.629z M83.68,121.22l-3.619-1.704l0.852-1.809
			l3.619,1.704L83.68,121.22z M76.442,117.812l-3.619-1.705l0.852-1.809l3.619,1.705L76.442,117.812z M69.205,114.402l-3.619-1.705
			l0.852-1.809l3.619,1.705L69.205,114.402z M61.968,110.993l-3.619-1.704l0.852-1.809l3.619,1.704L61.968,110.993z M54.73,107.584
			l-3.619-1.704l0.852-1.809l3.619,1.704L54.73,107.584z M47.493,104.175l-3.619-1.704l0.852-1.809l3.619,1.704L47.493,104.175z"/>
	</g>
	<g>
		<circle fill="#FFFFFF" cx="140.653" cy="64.24" r="37.612"/>
		<circle fill="#D8E5ED" cx="140.653" cy="64.24" r="31.612"/>
		<g>
			<g>
				<defs>
					<circle id="SVGID_13_" cx="140.653" cy="64.24" r="37.084"/>
				</defs>
				<clipPath id="SVGID_2_">
					<use xlink:href="#SVGID_13_"  overflow="visible"/>
				</clipPath>
				<g clip-path="url(#SVGID_2_)">
					<g>
						<path fill="#B0D9EF" d="M152.866,76.163c0,5.962-4.832,10.796-10.795,10.796h-4.547c-5.962,0-10.796-4.834-10.796-10.796
							V56.559c0-5.962,4.834-10.795,10.796-10.795h4.547c5.963,0,10.795,4.833,10.795,10.795V76.163z"/>
						<path fill="#477CA8" d="M142.071,87.959h-4.547c-6.504,0-11.796-5.292-11.796-11.796V56.559
							c0-6.504,5.292-11.795,11.796-11.795h4.547c6.504,0,11.795,5.291,11.795,11.795v19.604
							C153.866,82.667,148.575,87.959,142.071,87.959z M137.524,46.764c-5.401,0-9.796,4.394-9.796,9.795v19.604
							c0,5.401,4.395,9.796,9.796,9.796h4.547c5.401,0,9.795-4.395,9.795-9.796V56.559c0-5.401-4.394-9.795-9.795-9.795H137.524z"/>
					</g>
					<g>
						<g>
							<path fill="#D8E5ED" d="M140.6,78.228v15.132c4.905,0,8.896,3.992,8.896,8.899v20.491h15.132v-20.491
								C164.627,89.008,153.849,78.228,140.6,78.228z"/>
							<path fill="#477CA8" d="M165.627,123.75h-17.132v-21.491c0-4.355-3.542-7.899-7.896-7.899h-1V77.228h1
								c13.8,0,25.027,11.229,25.027,25.031V123.75z M150.495,121.75h13.132v-19.491c0-12.364-9.792-22.484-22.027-23.01v13.16
								c4.988,0.503,8.896,4.729,8.896,9.85V121.75z"/>
						</g>
						<g>
							<path fill="#D8E5ED" d="M115.253,102.259v20.491h15.133v-20.491c0-4.907,3.99-8.899,8.896-8.899V78.228
								C126.032,78.228,115.253,89.008,115.253,102.259z"/>
							<path fill="#477CA8" d="M131.386,123.75h-17.133v-21.491c0-13.803,11.229-25.031,25.029-25.031h1v17.132h-1
								c-4.354,0-7.896,3.544-7.896,7.899V123.75z M116.253,121.75h13.133v-19.491c0-5.121,3.907-9.347,8.896-9.85v-13.16
								c-12.236,0.525-22.029,10.646-22.029,23.01V121.75z"/>
						</g>
					</g>
					<g>
						<path fill="#FFFFFF" d="M154.806,122.75V96.029c0-8.433-6.838-15.269-15.27-15.269c-8.434,0-15.269,6.836-15.269,15.269
							v26.721H154.806z"/>
						<path fill="#477CA8" d="M155.806,122.75h-2V96.029c0-7.868-6.401-14.269-14.27-14.269s-14.269,6.4-14.269,14.269v26.721h-2
							V96.029c0-8.971,7.298-16.269,16.269-16.269s16.27,7.298,16.27,16.269V122.75z"/>
					</g>
					<g>
						<path fill="#FFFFFF" d="M156.798,65.65c0,2.554-2.071,4.624-4.625,4.624h-24.75c-2.554,0-4.624-2.07-4.624-4.624l0,0
							c0-2.554,2.07-4.624,4.624-4.624h24.75C154.727,61.026,156.798,63.097,156.798,65.65L156.798,65.65z"/>
						<path fill="#477CA8" d="M152.173,71.274h-24.75c-3.102,0-5.624-2.522-5.624-5.624s2.522-5.624,5.624-5.624h24.75
							c3.102,0,5.625,2.522,5.625,5.624S155.274,71.274,152.173,71.274z M127.423,62.026c-1.998,0-3.624,1.626-3.624,3.624
							s1.626,3.624,3.624,3.624h24.75c1.999,0,3.625-1.626,3.625-3.624s-1.626-3.624-3.625-3.624H127.423z"/>
					</g>
					<g>
						<path fill="#FFFFFF" d="M139.471,87.385c-2.667,0-4.831-2.162-4.831-4.83V56.701c0-2.667,2.164-4.83,4.831-4.83l0,0
							c2.667,0,4.829,2.163,4.829,4.83v25.854C144.3,85.223,142.138,87.385,139.471,87.385L139.471,87.385z"/>
						<path fill="#477CA8" d="M139.471,88.385c-3.215,0-5.831-2.615-5.831-5.83V56.701c0-3.215,2.616-5.83,5.831-5.83
							c3.214,0,5.829,2.615,5.829,5.83v25.854C145.3,85.77,142.685,88.385,139.471,88.385z M139.471,52.871
							c-2.112,0-3.831,1.718-3.831,3.83v25.854c0,2.112,1.719,3.83,3.831,3.83c2.111,0,3.829-1.718,3.829-3.83V56.701
							C143.3,54.589,141.582,52.871,139.471,52.871z"/>
					</g>
					<g>
						<path fill="#FFFFFF" d="M152.866,48.035v19.604c0,5.963-4.832,10.797-10.795,10.797h-4.547
							c-5.962,0-10.796-4.834-10.796-10.797V48.035H152.866z"/>
						<path fill="#477CA8" d="M142.071,79.436h-4.547c-6.504,0-11.796-5.292-11.796-11.797V48.035h2v19.604
							c0,5.402,4.395,9.797,9.796,9.797h4.547c5.401,0,9.795-4.395,9.795-9.797V48.035h2v19.604
							C153.866,74.144,148.575,79.436,142.071,79.436z"/>
					</g>
					<g>
						<path fill="#B0D9EF" d="M142.071,37.239h-4.547c-5.962,0-10.796,4.835-10.796,10.796v12.929
							c5.392-0.489,10.522-5.52,13.068-12.721c2.547,7.201,7.679,12.231,13.069,12.721V48.035
							C152.866,42.074,148.034,37.239,142.071,37.239z"/>
						<path fill="#477CA8" d="M153.866,62.059l-1.091-0.099c-5.157-0.469-10.072-4.719-12.979-11.054
							c-2.904,6.335-7.82,10.586-12.978,11.054l-1.091,0.099V48.035c0-6.504,5.292-11.796,11.796-11.796h4.547
							c6.504,0,11.795,5.292,11.795,11.796V62.059z M137.524,38.239c-5.401,0-9.796,4.395-9.796,9.796v11.766
							c4.589-0.989,8.873-5.521,11.126-11.891l0.942-2.667l0.942,2.667c2.253,6.369,6.538,10.901,11.127,11.891V48.035
							c0-5.401-4.394-9.796-9.795-9.796H137.524z"/>
					</g>
					<g>
						<path fill="#FFFFFF" d="M130.968,63.855c0-1.101,1.272-1.992,2.84-1.992s2.839,0.892,2.839,1.992H130.968z"/>
						<path fill="#477CA8" d="M137.646,63.855h-2c0-0.459-0.804-0.992-1.839-0.992c-1.036,0-1.84,0.533-1.84,0.992h-2
							c0-1.678,1.687-2.992,3.84-2.992C135.96,60.863,137.646,62.178,137.646,63.855z"/>
					</g>
					<g>
						<path fill="#FFFFFF" d="M141.716,63.855c0-1.101,1.271-1.992,2.839-1.992c1.568,0,2.839,0.892,2.839,1.992H141.716z"/>
						<path fill="#477CA8" d="M148.394,63.855h-2c0-0.459-0.804-0.992-1.839-0.992s-1.839,0.533-1.839,0.992h-2
							c0-1.678,1.687-2.992,3.839-2.992S148.394,62.178,148.394,63.855z"/>
					</g>
					<g>
						<path fill="none" stroke="#477CA8" stroke-width="2" d="M142.836,67.923L142.836,67.923z"/>
					</g>
					<g>
						<path fill="#477CA8" d="M139.995,73.753h-1.988c-2.118,0-3.842-1.723-3.842-3.841h2c0,1.015,0.826,1.841,1.842,1.841h1.988
							V73.753z"/>
					</g>
				</g>
			</g>
			<g>
				<path fill="#477CA8" d="M140.653,102.823c-21.275,0-38.584-17.309-38.584-38.583c0-21.275,17.309-38.584,38.584-38.584
					s38.584,17.309,38.584,38.584C179.237,85.515,161.929,102.823,140.653,102.823z M140.653,28.656
					c-19.621,0-35.584,15.963-35.584,35.584c0,19.62,15.963,35.583,35.584,35.583s35.584-15.963,35.584-35.583
					C176.237,44.619,160.274,28.656,140.653,28.656z"/>
			</g>
		</g>
	</g>
	<g>
		<circle fill="#FFFFFF" cx="233.049" cy="98.119" r="37.083"/>
		<circle fill="#B0D9EF" cx="233.049" cy="98.119" r="31.612"/>
		<g>
			<g>
				<defs>
					<circle id="SVGID_15_" cx="233.049" cy="98.119" r="37.083"/>
				</defs>
				<clipPath id="SVGID_4_">
					<use xlink:href="#SVGID_15_"  overflow="visible"/>
				</clipPath>
				<g clip-path="url(#SVGID_4_)">
					<g>
						<path fill="#FFFFFF" d="M209.948,138.777v-15.469c0-3.396,3.11-6.148,6.947-6.148h30.484c3.838,0,6.947,2.752,6.947,6.148
							v15.469H209.948z"/>
						<path fill="#477CA8" d="M255.327,138.777h-2v-15.469c0-2.839-2.668-5.148-5.947-5.148h-30.484
							c-3.279,0-5.947,2.31-5.947,5.148v15.469h-2v-15.469c0-3.941,3.565-7.148,7.947-7.148h30.484c4.382,0,7.947,3.207,7.947,7.148
							V138.777z"/>
					</g>
					<g>
						<polygon fill="#FFFFFF" points="237.837,117.225 232.001,120.594 226.163,117.225 226.163,104.48 232.001,104.48 
							237.837,104.48 						"/>
						<path fill="#477CA8" d="M232.001,121.748l-6.838-3.946V103.48h13.674v14.321L232.001,121.748z M227.163,116.647l4.838,2.792
							l4.836-2.792V105.48h-9.674V116.647z"/>
					</g>
					<g>
						<polygon fill="#FFFFFF" points="225.163,125.467 231.976,120.963 225.7,117.34 						"/>
						<path fill="#477CA8" d="M224.032,127.413l0.776-11.743l9.067,5.235L224.032,127.413z M226.592,119.01l-0.298,4.511l3.781-2.5
							L226.592,119.01z"/>
					</g>
					<g>
						<polygon fill="#FFFFFF" points="238.827,125.469 232.013,121.572 238.288,117.34 						"/>
						<path fill="#477CA8" d="M239.948,127.262l-9.828-5.619l9.051-6.104L239.948,127.262z M233.905,121.502l3.801,2.174
							l-0.301-4.534L233.905,121.502z"/>
					</g>
					<g>
						<path fill="#FFFFFF" d="M248.946,100.195c0,1.488-1.206,2.695-2.695,2.695h-0.225c-1.489,0-2.693-1.207-2.693-2.695v-4.939
							c0-1.49,1.204-2.695,2.693-2.695h0.225c1.489,0,2.695,1.205,2.695,2.695V100.195z"/>
						<path fill="#477CA8" d="M246.251,103.891h-0.225c-2.036,0-3.693-1.657-3.693-3.695v-4.939c0-2.038,1.657-3.695,3.693-3.695
							h0.225c2.038,0,3.695,1.657,3.695,3.695v4.939C249.946,102.233,248.289,103.891,246.251,103.891z M246.026,93.561
							c-0.934,0-1.693,0.761-1.693,1.695v4.939c0,0.935,0.76,1.695,1.693,1.695h0.225c0.935,0,1.695-0.761,1.695-1.695v-4.939
							c0-0.935-0.761-1.695-1.695-1.695H246.026z"/>
					</g>
					<g>
						<path fill="#FFFFFF" d="M245.784,100.648c0,7.539-6.109,13.648-13.646,13.648l0,0c-7.538,0-13.648-6.109-13.648-13.648V89.732
							c0-7.537,6.11-13.646,13.648-13.646l0,0c7.537,0,13.646,6.109,13.646,13.646V100.648z"/>
						<path fill="#477CA8" d="M232.138,115.297c-8.077,0-14.648-6.571-14.648-14.648V89.732c0-8.076,6.571-14.646,14.648-14.646
							c8.076,0,14.646,6.57,14.646,14.646v10.916C246.784,108.726,240.214,115.297,232.138,115.297z M232.138,77.086
							c-6.975,0-12.648,5.673-12.648,12.646v10.916c0,6.975,5.674,12.648,12.648,12.648c6.974,0,12.646-5.674,12.646-12.648V89.732
							C244.784,82.759,239.111,77.086,232.138,77.086z"/>
					</g>
					<g>
						<path fill="#D8E5ED" d="M227.265,75.344c-2.209,0-4.15,1.139-5.279,2.857h-2.167c-2.701,0-4.893,2.189-4.893,4.893v23.527
							h3.442V90.266c0-1.902,1.543-3.443,3.444-3.443h2.008h16.93h3.156c3.487,0,6.312-2.826,6.312-6.312v-5.166H227.265z"/>
						<path fill="#477CA8" d="M219.368,107.621h-5.442V83.094c0-3.249,2.644-5.893,5.893-5.893h1.652
							c1.383-1.799,3.51-2.857,5.794-2.857h23.954v6.166c0,4.032-3.28,7.312-7.312,7.312h-22.094c-1.348,0-2.444,1.096-2.444,2.443
							V107.621z M215.926,105.621h1.442V90.266c0-2.45,1.994-4.443,4.444-4.443h22.094c2.93,0,5.312-2.383,5.312-5.312v-4.166
							h-21.954c-1.793,0-3.454,0.899-4.443,2.406l-0.296,0.451h-2.707c-2.146,0-3.893,1.746-3.893,3.893V105.621z"/>
					</g>
					<g>
						<path fill="#FFFFFF" d="M218.489,92.59c-1.354,0.141-3.563,1.273-3.563,2.666v4.939c0,1.395,2.209,2.525,3.563,2.666V92.59z"
							/>
						<path fill="#477CA8" d="M219.489,103.971l-1.104-0.114c-1.601-0.167-4.46-1.532-4.46-3.661v-4.939
							c0-2.129,2.859-3.494,4.46-3.661l1.104-0.114V103.971z M217.489,93.894c-0.831,0.36-1.563,0.946-1.563,1.362v4.939
							c0,0.416,0.732,1.002,1.563,1.362V93.894z"/>
					</g>
					<g>
						<path fill="#FFFFFF" d="M229.251,105.854c0.656,1.137,1.729,1.881,2.941,1.881c1.214,0,2.285-0.744,2.94-1.881H229.251z"/>
						<path fill="#477CA8" d="M232.192,108.734c-1.523,0-2.946-0.89-3.808-2.381l1.732-1c0.499,0.864,1.274,1.381,2.075,1.381
							c0.812,0,1.568-0.503,2.074-1.38l1.732,0.998C235.14,107.844,233.717,108.734,232.192,108.734z"/>
					</g>
					<g>
						<path fill="#FFFFFF" d="M218.802,92.627v2.189c0,3.119,2.529,5.648,5.647,5.648c3.12,0,5.647-2.529,5.647-5.648v-2.189
							H218.802z"/>
						<path fill="#477CA8" d="M224.449,101.465c-3.665,0-6.647-2.982-6.647-6.648v-3.189h13.295v3.189
							C231.097,98.482,228.114,101.465,224.449,101.465z M219.802,93.627v1.189c0,2.563,2.085,4.648,4.647,4.648
							s4.647-2.085,4.647-4.648v-1.189H219.802z"/>
					</g>
					<g>
						<path fill="#FFFFFF" d="M234.479,92.627v2.189c0,3.119,2.528,5.648,5.647,5.648s5.646-2.529,5.646-5.648v-2.189H234.479z"/>
						<path fill="#477CA8" d="M240.126,101.465c-3.665,0-6.647-2.982-6.647-6.648v-3.189h13.294v3.189
							C246.772,98.482,243.791,101.465,240.126,101.465z M235.479,93.627v1.189c0,2.563,2.085,4.648,4.647,4.648
							s4.646-2.085,4.646-4.648v-1.189H235.479z"/>
					</g>
					<g>
						<path fill="#FFFFFF" d="M226.337,95.684h-2.086H226.337z"/>
						<rect x="224.251" y="94.684" fill="#477CA8" width="2.086" height="2"/>
					</g>
					<g>
						<path fill="#FFFFFF" d="M239.991,95.684h-1.99H239.991z"/>
						<rect x="238.001" y="94.684" fill="#477CA8" width="1.99" height="2"/>
					</g>
					<g>
						<path fill="#FFFFFF" d="M230.088,92.627h5.164H230.088z"/>
						<rect x="230.088" y="91.627" fill="#477CA8" width="5.164" height="2"/>
					</g>
					<g>
						<path fill="#FFFFFF" d="M231.554,124.182v14.25V124.182z"/>
						<rect x="230.554" y="124.182" fill="#477CA8" width="2" height="14.25"/>
					</g>
				</g>
			</g>
			<g>
				<path fill="#477CA8" d="M233.049,136.703c-21.274,0-38.583-17.309-38.583-38.584s17.309-38.584,38.583-38.584
					c21.275,0,38.584,17.309,38.584,38.584S254.324,136.703,233.049,136.703z M233.049,62.535c-19.62,0-35.583,15.963-35.583,35.584
					s15.963,35.584,35.583,35.584c19.621,0,35.584-15.963,35.584-35.584S252.67,62.535,233.049,62.535z"/>
			</g>
		</g>
	</g>
	<g>
		<circle fill="#FFFFFF" cx="46.071" cy="98.119" r="36.612"/>
		<circle fill="#D8E9C9" cx="46.071" cy="98.119" r="31.612"/>
		<g>
			<g>
				<defs>
					<circle id="SVGID_17_" cx="46.071" cy="98.119" r="37.083"/>
				</defs>
				<clipPath id="SVGID_6_">
					<use xlink:href="#SVGID_17_"  overflow="visible"/>
				</clipPath>
				<g clip-path="url(#SVGID_6_)">
					<g>
						<path fill="#D8E5ED" d="M70.307,150.955v-27.248c0-3.148-3.292-5.699-7.354-5.699H52.486c0.016-0.143,0.025-0.287,0.025-0.434
							v-12.402c0-2.676-2.475-4.84-5.527-4.84h-0.346c-3.054,0-5.528,2.164-5.528,4.84v12.402c0,0.146,0.011,0.291,0.025,0.434
							H30.672c-4.062,0-7.355,2.551-7.355,5.699v27.248H70.307z"/>
						<path fill="#477CA8" d="M71.307,150.955h-2v-27.248c0-2.591-2.851-4.699-6.354-4.699H51.371l0.121-1.109
							c0.012-0.106,0.02-0.215,0.02-0.324v-12.402c0-2.117-2.031-3.84-4.527-3.84h-0.346c-2.497,0-4.528,1.723-4.528,3.84v12.402
							c0,0.112,0.009,0.223,0.021,0.331l0.113,1.103H30.672c-3.505,0-6.355,2.108-6.355,4.699v27.248h-2v-27.248
							c0-3.694,3.748-6.699,8.355-6.699h9.438v-11.836c0-3.22,2.929-5.84,6.528-5.84h0.346c3.6,0,6.527,2.62,6.527,5.84v11.836
							h9.441c4.606,0,8.354,3.005,8.354,6.699V150.955z"/>
					</g>
					<g>
						<path fill="#D8E5ED" d="M53.669,120.299c0,0.668-0.542,1.211-1.21,1.211H41.164c-0.668,0-1.21-0.543-1.21-1.211v-5.447
							c0-0.668,0.542-1.209,1.21-1.209h11.295c0.668,0,1.21,0.541,1.21,1.209V120.299z"/>
						<path fill="#477CA8" d="M52.459,122.51H41.164c-1.219,0-2.21-0.992-2.21-2.211v-5.447c0-1.218,0.991-2.209,2.21-2.209h11.295
							c1.219,0,2.21,0.991,2.21,2.209v5.447C54.669,121.518,53.678,122.51,52.459,122.51z M41.164,114.643
							c-0.116,0-0.21,0.094-0.21,0.209v5.447c0,0.116,0.094,0.211,0.21,0.211h11.295c0.116,0,0.21-0.095,0.21-0.211v-5.447
							c0-0.115-0.094-0.209-0.21-0.209H41.164z"/>
					</g>
					<g>
						<path fill="#FFFFFF" d="M61.022,99.719c0,7.947-6.442,14.389-14.39,14.389l0,0c-7.947,0-14.39-6.441-14.39-14.389V91.84
							c0-7.949,6.442-14.391,14.39-14.391l0,0c7.947,0,14.39,6.441,14.39,14.391V99.719z"/>
						<path fill="#477CA8" d="M46.633,115.107c-8.486,0-15.39-6.903-15.39-15.389V91.84c0-8.486,6.903-15.391,15.39-15.391
							s15.39,6.904,15.39,15.391v7.879C62.022,108.204,55.119,115.107,46.633,115.107z M46.633,78.449
							c-7.383,0-13.39,6.007-13.39,13.391v7.879c0,7.383,6.007,13.389,13.39,13.389s13.39-6.006,13.39-13.389V91.84
							C60.022,84.456,54.016,78.449,46.633,78.449z"/>
					</g>
					<g>
						<path fill="#FFFFFF" d="M34.048,95.426c-1.527,0.16-4.021,1.436-4.021,3.008v3.629c0,1.572,2.493,2.85,4.021,3.008V95.426z"/>
						<path fill="#477CA8" d="M35.048,106.18l-1.103-0.114c-1.766-0.184-4.918-1.677-4.918-4.003v-3.629
							c0-2.321,3.151-3.817,4.916-4.002l1.104-0.116V106.18z M33.048,96.705c-1.035,0.4-2.021,1.132-2.021,1.729v3.629
							c0,0.599,0.986,1.33,2.021,1.73V96.705z"/>
					</g>
					<g>
						<path fill="#FFFFFF" d="M39.224,95.893h2.623H39.224z"/>
						<rect x="39.224" y="94.893" fill="#477CA8" width="2.623" height="2"/>
					</g>
					<g>
						<path fill="#FFFFFF" d="M50.115,95.893h2.623H50.115z"/>
						<rect x="50.115" y="94.893" fill="#477CA8" width="2.623" height="2"/>
					</g>
					<g>
						<path fill="#FFFFFF" d="M43.536,107.256c0.69,1.197,1.82,1.982,3.101,1.982c1.281,0,2.41-0.785,3.101-1.982H43.536z"/>
						<path fill="#477CA8" d="M46.637,110.238c-1.587,0-3.07-0.928-3.967-2.482l1.732-1c0.535,0.929,1.37,1.482,2.234,1.482
							c0.877,0,1.691-0.54,2.234-1.482l1.732,1C49.707,109.311,48.224,110.238,46.637,110.238z"/>
					</g>
					<g>
						<path fill="#D8E5ED" d="M60.4,81.068h-1.672c0.56-0.971,0.731-1.973,0.391-2.854c-0.848-2.182-4.479-2.807-8.114-1.396
							c-0.409,0.158-0.798,0.34-1.171,0.533c0.229-0.777,0.236-1.541-0.037-2.244c-1.004-2.588-5.315-3.33-9.629-1.656
							c-4.26,1.652-6.925,5.041-6.025,7.617H32.87c-1.672,0-3.026,1.355-3.026,3.025v12.625c0.053,0.129,0.101,0.258,0.154,0.385
							h4.062V86.09c0-0.154,0.018-0.305,0.023-0.457c3.797,0.797,8.057,1.248,12.551,1.248s8.752-0.451,12.551-1.248
							c0.006,0.152,0.023,0.303,0.023,0.457v11.014h4.062c0.055-0.127,0.102-0.258,0.154-0.387V84.094
							C63.426,82.424,62.071,81.068,60.4,81.068z"/>
						<path fill="#477CA8" d="M63.93,98.104h-5.721V86.846c-3.672,0.688-7.559,1.035-11.574,1.035
							c-4.017,0-7.904-0.348-11.574-1.035v11.258h-5.726l-0.491-1.188V84.094c0-2.22,1.807-4.025,4.026-4.025h0.1
							c-0.022-2.828,2.704-5.946,6.837-7.55c1.623-0.63,3.312-0.963,4.887-0.963c3.005,0,5.261,1.192,6.036,3.19
							c0.127,0.327,0.21,0.666,0.249,1.015c1.282-0.456,2.603-0.696,3.84-0.696c2.599,0,4.555,1.042,5.232,2.788
							c0.266,0.687,0.31,1.443,0.14,2.216h0.21c2.22,0,4.025,1.806,4.025,4.025v12.819l-0.131,0.326
							c-0.034,0.088-0.068,0.175-0.105,0.26L63.93,98.104z M60.209,96.104h2.217v-12.01c0-1.117-0.908-2.025-2.025-2.025h-3.402
							l0.864-1.499c0.299-0.52,0.598-1.286,0.324-1.993c-0.362-0.933-1.653-1.512-3.368-1.512c-1.101,0-2.294,0.237-3.452,0.687
							c-0.343,0.133-0.693,0.292-1.072,0.488l-2.08,1.078l0.661-2.248c0.175-0.595,0.171-1.133-0.01-1.6
							c-0.458-1.181-2.057-1.914-4.172-1.914c-1.329,0-2.769,0.286-4.164,0.828c-3.657,1.419-6.15,4.329-5.442,6.354l0.464,1.33
							H32.87c-1.117,0-2.026,0.908-2.026,2.025v12.01h2.217V86.09c0-0.116,0.007-0.23,0.015-0.345l0.055-1.334l1.159,0.243
							c3.879,0.813,8.032,1.227,12.346,1.227c4.312,0,8.465-0.413,12.346-1.227l1.159-0.243l0.055,1.334
							c0.008,0.114,0.015,0.229,0.015,0.345V96.104z"/>
					</g>
					<g>
						<path fill="#FFFFFF" d="M44.443,92.715v9.051c0,0.586,0.473,1.061,1.059,1.061h1.941c0.585,0,1.06-0.475,1.06-1.061v-0.529
							L44.443,92.715z"/>
						<path fill="#477CA8" d="M47.443,103.826h-1.941c-1.135,0-2.059-0.925-2.059-2.061v-9.051h2v9.051l2,0.061l0.06-0.59h2v0.529
							C49.503,102.901,48.579,103.826,47.443,103.826z"/>
					</g>
					<g>
						<path fill="#FFFFFF" d="M44.268,121.104v-4.637V121.104z"/>
						<rect x="43.268" y="116.467" fill="#477CA8" width="2" height="4.637"/>
					</g>
					<g>
						<path fill="#FFFFFF" d="M59.189,98.266c0-1.568,1.271-2.84,2.842-2.84h0.236c1.568,0,2.842,1.271,2.842,2.84v3.451
							c0,1.57-1.273,2.842-2.842,2.842h-0.236c-1.162,0-2.16-0.697-2.602-1.693L59.189,98.266z"/>
						<path fill="#477CA8" d="M62.268,105.559h-0.236c-1.52,0-2.899-0.898-3.516-2.288l1.828-0.811
							c0.296,0.667,0.958,1.099,1.688,1.099h0.236c1.016,0,1.842-0.826,1.842-1.842v-3.451c0-1.015-0.826-1.84-1.842-1.84h-0.236
							c-1.016,0-1.842,0.825-1.842,1.84h-2c0-2.117,1.724-3.84,3.842-3.84h0.236c2.118,0,3.842,1.723,3.842,3.84v3.451
							C66.109,103.835,64.386,105.559,62.268,105.559z"/>
					</g>
				</g>
			</g>
			<g>
				<path fill="#477CA8" d="M46.071,136.703c-21.274,0-38.583-17.309-38.583-38.584s17.309-38.584,38.583-38.584
					s38.583,17.309,38.583,38.584S67.346,136.703,46.071,136.703z M46.071,62.535c-19.62,0-35.583,15.963-35.583,35.584
					s15.963,35.584,35.583,35.584s35.583-15.963,35.583-35.584S65.691,62.535,46.071,62.535z"/>
			</g>
		</g>
	</g>
	<g>
		<g>
			<path fill="#D8E5ED" d="M206.837,233.133c0,2.279-1.848,4.127-4.129,4.127H79.151c-2.282,0-4.129-1.848-4.129-4.127v-84.557
				c0-2.281,1.847-4.131,4.129-4.131h123.557c2.281,0,4.129,1.85,4.129,4.131V233.133z"/>
			<path fill="#477CA8" d="M202.708,238.76H79.151c-3.104,0-5.629-2.524-5.629-5.627v-84.557c0-3.104,2.525-5.631,5.629-5.631
				h123.557c3.104,0,5.629,2.526,5.629,5.631v84.557C208.337,236.235,205.812,238.76,202.708,238.76z M79.151,145.945
				c-1.449,0-2.629,1.181-2.629,2.631v84.557c0,1.448,1.18,2.627,2.629,2.627h123.557c1.449,0,2.629-1.179,2.629-2.627v-84.557
				c0-1.45-1.18-2.631-2.629-2.631H79.151z"/>
		</g>
		<rect x="81.484" y="150.371" fill="#FFFFFF" width="118.89" height="75.885"/>
		<g>
			<path fill="#FFFFFF" d="M229.481,236.973c0.024-0.047,0.053-0.092,0.076-0.139l-0.076-4.25H52.377v4.25c0,0-0.024,0.092,0,0.141
				l0.45,0.793c2.267,3.689,6.326,4.35,10.975,4.35h154.256c4.646,0,8.707-0.66,10.974-4.35L229.481,236.973z"/>
			<path fill="#477CA8" d="M218.058,243.617H63.802c-4.521,0-9.511-0.602-12.253-5.064l-0.477-0.838
				c-0.193-0.383-0.219-0.728-0.195-0.982v-5.648h180.078l0.109,6.092l-0.728,1.331
				C227.567,243.016,222.577,243.617,218.058,243.617z M53.877,236.581l0.255,0.446c1.827,2.972,5.19,3.59,9.67,3.59h154.256
				c4.479,0,7.842-0.618,9.695-3.635l0.298-0.526l-0.043-2.372H53.877V236.581z"/>
		</g>
		<g>
			<path fill="#477CA8" d="M128.899,232.584v0.555c0,1.023,0.827,1.854,1.85,1.854h20.359c1.021,0,1.852-0.83,1.852-1.854v-0.555
				H128.899z"/>
		</g>
	</g>
	<g>
		<rect x="235.552" y="240.617" fill="#477CA8" width="38" height="3"/>
	</g>
	<g>
		<rect x="11.552" y="240.617" fill="#477CA8" width="38" height="3"/>
	</g>
	<g>
		<g>
			<rect x="11.886" y="159.768" fill="#B5D1DE" width="40" height="2"/>
		</g>
		<g>
			<rect x="11.886" y="164.768" fill="#B5D1DE" width="40" height="2"/>
		</g>
		<g>
			<rect x="11.886" y="169.768" fill="#B5D1DE" width="40" height="2"/>
		</g>
		<g>
			<polygon fill="#477CA8" points="33.886,155.811 6.886,155.811 6.886,145.688 33.886,145.688 33.886,147.688 8.886,147.688 
				8.886,153.811 33.886,153.811 			"/>
		</g>
		<g>
			<polygon fill="#477CA8" points="56.886,154.768 32.886,154.768 32.886,152.768 54.886,152.768 54.886,148.768 32.886,148.768 
				32.886,146.768 56.886,146.768 			"/>
		</g>
		<g>
			<polygon fill="#477CA8" points="60.886,153.768 55.886,153.768 55.886,151.768 58.886,151.768 58.886,149.768 55.886,149.768 
				55.886,147.768 60.886,147.768 			"/>
		</g>
		<g>
			<rect x="10.886" y="146.768" fill="#477CA8" width="2" height="8"/>
		</g>
		<g>
			<rect x="9.886" y="149.768" fill="#477CA8" width="13" height="2"/>
		</g>
		<g>
			<rect x="58.886" y="149.768" fill="#477CA8" width="4" height="2"/>
		</g>
		<g>
			<rect x="31.886" y="146.768" fill="#477CA8" width="2" height="8"/>
		</g>
	</g>
	<g>
		<circle fill="#D8E5ED" cx="140.961" cy="186.363" r="23.749"/>
		<path fill="#477CA8" d="M140.961,211.611c-13.922,0-25.248-11.326-25.248-25.248s11.326-25.248,25.248-25.248
			s25.249,11.326,25.249,25.248S154.883,211.611,140.961,211.611z M140.961,164.115c-12.268,0-22.248,9.98-22.248,22.248
			s9.98,22.248,22.248,22.248c12.269,0,22.249-9.98,22.249-22.248S153.229,164.115,140.961,164.115z"/>
	</g>
	<g>
		<circle fill="#B0D9EF" cx="78.461" cy="186.363" r="23.749"/>
		<path fill="#477CA8" d="M78.461,211.611c-13.922,0-25.248-11.326-25.248-25.248s11.326-25.248,25.248-25.248
			s25.249,11.326,25.249,25.248S92.383,211.611,78.461,211.611z M78.461,164.115c-12.268,0-22.248,9.98-22.248,22.248
			s9.98,22.248,22.248,22.248c12.269,0,22.249-9.98,22.249-22.248S90.729,164.115,78.461,164.115z"/>
	</g>
	<g>
		<circle fill="#D8E9C9" cx="203.461" cy="186.363" r="23.749"/>
		<path fill="#477CA8" d="M203.461,211.611c-13.922,0-25.248-11.326-25.248-25.248s11.326-25.248,25.248-25.248
			s25.249,11.326,25.249,25.248S217.383,211.611,203.461,211.611z M203.461,164.115c-12.268,0-22.248,9.98-22.248,22.248
			s9.98,22.248,22.248,22.248c12.269,0,22.249-9.98,22.249-22.248S215.729,164.115,203.461,164.115z"/>
	</g>
	<g>
		<path fill="#477CA8" d="M72.069,179.062c-1.805,0-3.229,0.602-4.273,1.803c-1.045,1.201-1.566,2.847-1.566,4.936
			c0,2.148,0.503,3.809,1.51,4.98s2.443,1.758,4.308,1.758c1.146,0,2.451-0.206,3.919-0.617v1.673
			c-1.138,0.427-2.542,0.64-4.211,0.64c-2.419,0-4.285-0.733-5.599-2.201c-1.314-1.467-1.971-3.553-1.971-6.255
			c0-1.692,0.315-3.175,0.948-4.447s1.546-2.253,2.74-2.942s2.601-1.033,4.218-1.033c1.722,0,3.227,0.314,4.515,0.943l-0.809,1.64
			C74.555,179.354,73.312,179.062,72.069,179.062z"/>
		<path fill="#477CA8" d="M88.926,177.592h2.056l-5.919,16.418h-1.887l-5.885-16.418h2.021l3.773,10.623
			c0.435,1.221,0.778,2.408,1.033,3.561c0.27-1.213,0.621-2.422,1.056-3.627L88.926,177.592z"/>
	</g>
	<g>
		<g>
			<path fill="#477CA8" d="M147.552,195.768h-16v-17.414l4.586-4.586h11.414V195.768z M133.552,193.768h12v-18h-8.586l-3.414,3.414
				V193.768z"/>
		</g>
		<g>
			<polygon fill="#477CA8" points="138.552,180.768 133.552,180.768 133.552,178.768 136.552,178.768 136.552,175.768 
				138.552,175.768 			"/>
		</g>
		<g>
			<polygon fill="#477CA8" points="139.552,192.182 135.845,188.475 137.259,187.061 139.552,189.354 141.845,187.061 
				143.259,188.475 			"/>
		</g>
		<g>
			<rect x="138.552" y="183.768" fill="#477CA8" width="2" height="6"/>
		</g>
	</g>
	<g>
		<polygon fill="#477CA8" points="200.16,192.184 195.497,187.52 196.911,186.105 200.16,189.355 211.323,178.191 212.737,179.605 
					"/>
	</g>
	<g>
		<g>
			<path fill="#477CA8" d="M259.071,169.461h-25.703c-1.611,0-2.923-1.312-2.923-2.924v-16.814c0-1.61,1.312-2.921,2.923-2.921
				h25.703c1.61,0,2.921,1.311,2.921,2.921v16.814C261.992,168.149,260.682,169.461,259.071,169.461z M233.368,148.802
				c-0.509,0-0.923,0.413-0.923,0.921v16.814c0,0.51,0.414,0.924,0.923,0.924h25.703c0.508,0,0.921-0.414,0.921-0.924v-16.814
				c0-0.508-0.413-0.921-0.921-0.921H233.368z"/>
		</g>
		<g>
			<path fill="#477CA8" d="M259.071,169.461h-25.703c-1.203,0-2.299-0.759-2.728-1.887l-0.244-0.644l10.546-9.406l1.332,1.492
				l-9.342,8.332c0.132,0.072,0.28,0.112,0.436,0.112h25.703c0.154,0,0.303-0.04,0.434-0.112l-9.453-8.431l1.332-1.492l10.656,9.504
				l-0.243,0.643C261.369,168.702,260.274,169.461,259.071,169.461z"/>
		</g>
		<g>
			<path fill="#477CA8" d="M246.22,163.441l-15.823-14.107l0.243-0.644c0.429-1.13,1.524-1.889,2.729-1.889h25.703
				c1.204,0,2.299,0.76,2.726,1.89l0.242,0.643L246.22,163.441z M232.932,148.915l13.288,11.847l13.286-11.848
				c-0.132-0.072-0.28-0.112-0.435-0.112h-25.703C233.213,148.802,233.063,148.842,232.932,148.915z"/>
		</g>
	</g>
	<g>
		<g>
			<g>
				<rect x="223.241" y="143.197" fill="#B5D1DE" width="9.645" height="2"/>
			</g>
			<g>
				<rect x="216.189" y="143.197" fill="#B5D1DE" width="3.215" height="2"/>
			</g>
		</g>
		<g>
			<rect x="211.42" y="148.036" fill="#B5D1DE" width="14.773" height="2"/>
		</g>
	</g>
</g>
</svg>
