<?xml version="1.0" encoding="utf-8"?>
<!-- Generator: Adobe Illustrator 16.0.0, SVG Export Plug-In . SVG Version: 6.00 Build 0)  -->
<!DOCTYPE svg PUBLIC "-//W3C//DTD SVG 1.1//EN" "http://www.w3.org/Graphics/SVG/1.1/DTD/svg11.dtd">
<svg version="1.1" id="Layer_4" xmlns="http://www.w3.org/2000/svg" xmlns:xlink="http://www.w3.org/1999/xlink" x="0px" y="0px"
	 width="296.945px" height="289.676px" viewBox="0 0 296.945 289.676" enable-background="new 0 0 296.945 289.676"
	 xml:space="preserve">
<g>
	<path fill="#E7F4FC" d="M203.756,273.656c-7.778,7.778-22.835,11.813-33.46,8.966L62.902,253.847
		c-10.625-2.848-21.647-13.87-24.495-24.495L9.631,121.957c-2.847-10.625,1.188-25.683,8.966-33.461L97.213,9.88
		c7.778-7.778,22.835-11.813,33.46-8.966l107.395,28.775c10.625,2.848,21.647,13.87,24.495,24.495l28.776,107.394
		c2.847,10.625-1.188,25.683-8.966,33.461L203.756,273.656z"/>
	<g>
		<circle fill="#FDF4BB" cx="135.697" cy="25.895" r="23.749"/>
		<path fill="#477CA8" d="M135.696,51.143c-13.922,0-25.248-11.326-25.248-25.248s11.326-25.248,25.248-25.248
			c13.922,0,25.249,11.326,25.249,25.248S149.619,51.143,135.696,51.143z M135.696,3.646c-12.268,0-22.248,9.98-22.248,22.248
			s9.98,22.248,22.248,22.248c12.268,0,22.249-9.98,22.249-22.248S147.964,3.646,135.696,3.646z"/>
	</g>
	<g>
		<circle fill="#D8E5ED" cx="52.697" cy="209.895" r="23.749"/>
		<path fill="#477CA8" d="M52.696,235.143c-13.922,0-25.248-11.326-25.248-25.248s11.326-25.248,25.248-25.248
			c13.922,0,25.249,11.326,25.249,25.248S66.619,235.143,52.696,235.143z M52.696,187.646c-12.268,0-22.248,9.98-22.248,22.248
			s9.98,22.248,22.248,22.248c12.268,0,22.249-9.98,22.249-22.248S64.964,187.646,52.696,187.646z"/>
	</g>
	<g>
		<circle fill="#B0D9EF" cx="271.697" cy="85.146" r="23.749"/>
		<path fill="#477CA8" d="M271.696,110.395c-13.922,0-25.248-11.326-25.248-25.248s11.326-25.248,25.248-25.248
			c13.922,0,25.249,11.326,25.249,25.248S285.619,110.395,271.696,110.395z M271.696,62.898c-12.268,0-22.248,9.98-22.248,22.248
			s9.98,22.248,22.248,22.248c12.268,0,22.249-9.98,22.249-22.248S283.964,62.898,271.696,62.898z"/>
	</g>
	<g>
		<path fill="#FFFFFF" d="M154.923,158.99c-2.813,2.816-2.813,7.385,0,10.199l37.549,37.549c2.811,2.814,7.379,2.814,10.197,0l0,0
			c2.814-2.818,2.814-7.385,0-10.201L165.12,158.99C162.304,156.174,157.738,156.174,154.923,158.99L154.923,158.99z"/>
		<path fill="#477CA8" d="M197.567,210.35c-2.328,0-4.514-0.906-6.157-2.552l-37.548-37.548c-3.395-3.396-3.395-8.922,0-12.32
			c1.645-1.646,3.833-2.552,6.159-2.552s4.514,0.906,6.16,2.552l37.548,37.547c3.394,3.396,3.394,8.924,0.001,12.321
			C202.083,209.443,199.894,210.35,197.567,210.35z M160.021,158.378c-1.525,0-2.959,0.594-4.037,1.673
			c-2.226,2.228-2.226,5.852,0,8.078l37.548,37.549c1.077,1.078,2.509,1.672,4.035,1.672c1.526,0,2.961-0.595,4.041-1.673
			c2.224-2.228,2.224-5.853-0.001-8.079l-37.548-37.547C162.98,158.972,161.546,158.378,160.021,158.378z"/>
	</g>
	<g>
		<path fill="#FFFFFF" d="M148.687,127.189c-2.815,2.812-2.815,7.381,0,10.201l37.547,37.545c2.815,2.814,7.385,2.814,10.201,0l0,0
			c2.815-2.816,2.815-7.387,0-10.199l-37.55-37.547C156.071,124.371,151.503,124.371,148.687,127.189L148.687,127.189z"/>
		<path fill="#477CA8" d="M191.333,178.547c-2.328,0-4.516-0.906-6.161-2.551l-37.547-37.545c-3.397-3.402-3.396-8.93,0-12.323
			c1.645-1.646,3.833-2.552,6.16-2.552c2.328,0,4.516,0.906,6.16,2.554l37.549,37.546c1.645,1.643,2.551,3.83,2.551,6.158
			s-0.906,4.517-2.551,6.162C195.85,177.641,193.662,178.547,191.333,178.547z M153.787,126.576c-1.526,0-2.96,0.594-4.039,1.674
			c-2.228,2.225-2.227,5.85,0,8.081l37.546,37.544c1.078,1.078,2.513,1.672,4.04,1.672c1.527,0,2.962-0.594,4.041-1.672
			c1.078-1.079,1.672-2.514,1.672-4.041c0-1.526-0.594-2.96-1.672-4.036l-37.55-37.548
			C156.746,127.17,155.312,126.576,153.787,126.576z"/>
	</g>
	<g>
		<path fill="#FFFFFF" d="M145.897,98.832c-2.816,2.814-2.816,7.385,0,10.201l37.546,37.545c2.813,2.814,7.382,2.814,10.198,0l0,0
			c2.818-2.812,2.818-7.381,0-10.197l-37.547-37.549C153.282,96.02,148.713,96.02,145.897,98.832L145.897,98.832z"/>
		<path fill="#477CA8" d="M188.542,150.188c-2.328,0-4.515-0.905-6.159-2.55l-37.545-37.545c-1.646-1.646-2.552-3.834-2.552-6.162
			s0.906-4.516,2.552-6.16c1.645-1.644,3.833-2.549,6.16-2.549c2.328,0,4.515,0.905,6.158,2.549l37.547,37.549
			c1.647,1.646,2.554,3.835,2.553,6.164c0,2.326-0.908,4.513-2.554,6.155C193.057,149.283,190.869,150.188,188.542,150.188z
			 M150.997,98.223c-1.526,0-2.961,0.594-4.04,1.671c-1.078,1.077-1.672,2.512-1.672,4.038c0,1.527,0.594,2.962,1.673,4.041
			l37.546,37.545c1.078,1.078,2.511,1.671,4.038,1.671s2.961-0.594,4.04-1.671c1.079-1.077,1.673-2.51,1.673-4.034
			c0-1.527-0.594-2.962-1.674-4.042l-37.547-37.549C153.957,98.815,152.523,98.223,150.997,98.223z"/>
	</g>
	<g>
		<path fill="#FFFFFF" d="M160.368,86.432c-2.818,2.814-2.818,7.383,0,10.199l37.547,37.547c2.81,2.814,7.378,2.814,10.195,0l0,0
			c2.818-2.816,2.818-7.383,0-10.197l-37.547-37.549C167.747,83.617,163.181,83.617,160.368,86.432L160.368,86.432z"/>
		<path fill="#477CA8" d="M203.01,137.789c-2.328,0-4.514-0.906-6.156-2.552l-37.546-37.546c-1.647-1.646-2.554-3.834-2.553-6.162
			s0.907-4.515,2.554-6.159c1.643-1.644,3.829-2.55,6.156-2.55c2.327,0,4.514,0.906,6.159,2.551l37.547,37.549
			c1.646,1.644,2.553,3.83,2.553,6.157s-0.906,4.516-2.554,6.161C207.525,136.883,205.337,137.789,203.01,137.789z M165.464,85.82
			c-1.525,0-2.958,0.594-4.035,1.672c-1.08,1.078-1.675,2.512-1.675,4.037c0,1.526,0.594,2.962,1.674,4.041l37.547,37.547
			c1.077,1.078,2.509,1.672,4.034,1.672c1.526,0,2.961-0.595,4.041-1.673c1.08-1.078,1.674-2.513,1.674-4.039
			c0-1.524-0.595-2.958-1.674-4.035l-37.547-37.55C168.424,86.414,166.99,85.82,165.464,85.82z"/>
	</g>
	<g>
		<path fill="#D8E5ED" d="M237.343,172.223c-0.32-0.383-0.654-0.76-1.014-1.119l-19.693-19.695c-6.691-6.693-17.549-6.693-24.236,0
			l-19.697,19.695c-6.696,6.691-6.696,17.547,0,24.238l19.697,19.693c0.967,0.967,2.025,1.777,3.141,2.465
			c2.508,2.723,6.09,4.436,10.079,4.436h41.93v-49.713H237.343z"/>
		<path fill="#477CA8" d="M249.049,223.436h-43.43c-4.158,0-8.169-1.734-11.041-4.768c-1.199-0.756-2.289-1.621-3.24-2.572
			l-19.697-19.693c-3.522-3.52-5.461-8.2-5.461-13.18s1.939-9.66,5.462-13.181l19.697-19.694c3.517-3.521,8.197-5.46,13.177-5.46
			c4.98,0,9.661,1.939,13.181,5.46l19.693,19.695c0.211,0.211,0.421,0.434,0.64,0.68h11.019V223.436z M204.516,147.888
			c-4.179,0-8.104,1.627-11.056,4.581l-19.698,19.695c-2.956,2.953-4.583,6.881-4.583,11.059s1.627,8.105,4.582,11.058
			l19.698,19.694c0.833,0.832,1.797,1.589,2.867,2.248l0.176,0.109l0.14,0.151c2.348,2.549,5.535,3.952,8.976,3.952h40.43v-46.713
			h-9.407l-0.45-0.537c-0.339-0.406-0.633-0.73-0.924-1.021l-19.693-19.695C212.622,149.515,208.694,147.888,204.516,147.888z"/>
	</g>
	<g>
		<g>
			<g>
				<g>
					<path fill="#D8E5ED" d="M160.891,194.053c0,4.945,4.044,8.986,8.987,8.986h53.676c4.943,0,8.984-4.041,8.984-8.986V66.889
						c0-4.945-4.041-8.986-8.984-8.986h-53.676c-4.943,0-8.987,4.041-8.987,8.986V194.053z"/>
					<path fill="#477CA8" d="M223.554,204.539h-53.676c-5.782,0-10.487-4.704-10.487-10.486V66.889
						c0-5.782,4.705-10.486,10.487-10.486h53.676c5.781,0,10.484,4.704,10.484,10.486v127.164
						C234.038,199.835,229.335,204.539,223.554,204.539z M169.877,59.402c-4.128,0-7.487,3.358-7.487,7.486v127.164
						c0,4.128,3.358,7.486,7.487,7.486h53.676c4.127,0,7.484-3.358,7.484-7.486V66.889c0-4.128-3.357-7.486-7.484-7.486H169.877z"/>
				</g>
			</g>
			<g>
				<rect x="165.302" y="74.373" fill="#FFFFFF" width="62.947" height="111.621"/>
			</g>
		</g>
		<g>
			<path fill="#FFFFFF" d="M201.667,193.889h-9.907H201.667z"/>
			<rect x="191.761" y="192.389" fill="#477CA8" width="9.907" height="3"/>
		</g>
		<g>
			<path fill="#FFFFFF" d="M198.303,65.889h-3.177H198.303z"/>
			<rect x="195.126" y="64.389" fill="#477CA8" width="3.177" height="3"/>
		</g>
	</g>
	<g>
		<path fill="#FFFFFF" d="M119.345,146.041c7.338-10.07,11.679-22.465,11.679-35.879c0-33.689-27.311-61-61-61
			c-33.69,0-61,27.311-61,61s27.31,61,61,61c13.36,0,25.709-4.308,35.757-11.592l18.519,4.961L119.345,146.041z"/>
		<circle fill="#B0D9EF" cx="70.023" cy="110.162" r="52"/>
		<g>
			<g>
				<defs>
					<circle id="SVGID_21_" cx="70.023" cy="110.162" r="61"/>
				</defs>
				<clipPath id="SVGID_2_">
					<use xlink:href="#SVGID_21_"  overflow="visible"/>
				</clipPath>
				<g clip-path="url(#SVGID_2_)">
					<g>
						<path fill="#FFFFFF" d="M32.023,177.041v-25.443c0-5.586,5.117-10.113,11.428-10.113h50.146
							c6.312,0,11.426,4.527,11.426,10.113v25.443H32.023z"/>
						<path fill="#477CA8" d="M106.523,177.041h-3v-25.443c0-4.749-4.453-8.613-9.926-8.613H43.451
							c-5.474,0-9.928,3.864-9.928,8.613v25.443h-3v-25.443c0-6.403,5.799-11.613,12.928-11.613h50.146
							c7.127,0,12.926,5.21,12.926,11.613V177.041z"/>
					</g>
					<g>
						<polygon fill="#FFFFFF" points="77.898,141.588 68.299,147.131 58.697,141.588 58.697,120.627 68.299,120.627 77.898,120.627 
													"/>
						<path fill="#477CA8" d="M68.299,148.863l-11.102-6.409v-23.327h22.201v23.327L68.299,148.863z M60.197,140.722l8.102,4.677
							l8.1-4.677v-18.595H60.197V140.722z"/>
					</g>
					<g>
						<polygon fill="#FFFFFF" points="57.051,155.148 68.258,147.74 57.936,141.779 						"/>
						<path fill="#477CA8" d="M55.354,158.068l1.244-18.794l14.51,8.38L55.354,158.068z M59.273,144.284l-0.525,7.944l6.66-4.402
							L59.273,144.284z"/>
					</g>
					<g>
						<polygon fill="#FFFFFF" points="79.527,155.148 68.318,148.74 78.641,141.779 						"/>
						<path fill="#477CA8" d="M81.209,157.838l-15.729-8.992l14.485-9.769L81.209,157.838z M71.157,148.635l6.689,3.824
							l-0.529-7.978L71.157,148.635z"/>
					</g>
					<g>
						<path fill="#FFFFFF" d="M96.174,113.577c0,2.448-1.984,4.434-4.434,4.434h-0.369c-2.45,0-4.432-1.985-4.432-4.434v-8.125
							c0-2.449,1.981-4.433,4.432-4.433h0.369c2.449,0,4.434,1.983,4.434,4.433V113.577z"/>
						<path fill="#477CA8" d="M91.74,119.511h-0.369c-3.271,0-5.932-2.662-5.932-5.934v-8.125c0-3.271,2.661-5.933,5.932-5.933
							h0.369c3.272,0,5.934,2.661,5.934,5.933v8.125C97.674,116.849,95.012,119.511,91.74,119.511z M91.371,102.52
							c-1.617,0-2.932,1.315-2.932,2.933v8.125c0,1.617,1.315,2.934,2.932,2.934h0.369c1.618,0,2.934-1.316,2.934-2.934v-8.125
							c0-1.617-1.316-2.933-2.934-2.933H91.371z"/>
					</g>
					<g>
						<path fill="#FFFFFF" d="M90.973,114.324c0,12.398-10.051,22.447-22.449,22.447l0,0c-12.398,0-22.45-10.049-22.45-22.447
							V96.366c0-12.397,10.052-22.447,22.45-22.447l0,0c12.398,0,22.449,10.05,22.449,22.447V114.324z"/>
						<path fill="#477CA8" d="M68.523,138.271c-13.206,0-23.95-10.743-23.95-23.947V96.366c0-13.204,10.744-23.947,23.95-23.947
							c13.206,0,23.949,10.743,23.949,23.947v17.958C92.473,127.528,81.729,138.271,68.523,138.271z M68.523,75.419
							c-11.552,0-20.95,9.396-20.95,20.947v17.958c0,11.551,9.398,20.947,20.95,20.947c11.551,0,20.949-9.396,20.949-20.947V96.366
							C89.473,84.815,80.075,75.419,68.523,75.419z"/>
					</g>
					<g>
						<path fill="#D8E5ED" d="M60.508,72.7c-3.633,0-6.826,1.87-8.683,4.696H48.26c-4.443,0-8.048,3.602-8.048,8.049v38.701h5.664
							V97.244c0-3.129,2.537-5.664,5.665-5.664h3.303h27.849h5.191c5.736,0,10.384-4.649,10.384-10.385V72.7H60.508z"/>
						<path fill="#477CA8" d="M47.375,125.646h-8.664V85.445c0-5.266,4.283-9.549,9.548-9.549h2.79
							c2.246-2.955,5.723-4.696,9.458-4.696h39.259v9.995c0,6.554-5.331,11.885-11.884,11.885H51.54
							c-2.296,0-4.165,1.868-4.165,4.164V125.646z M41.711,122.646h2.664V97.244c0-3.95,3.214-7.164,7.165-7.164h36.343
							c4.898,0,8.884-3.985,8.884-8.885V74.2H60.508c-2.999,0-5.775,1.503-7.429,4.02l-0.444,0.677H48.26
							c-3.611,0-6.548,2.938-6.548,6.549V122.646z"/>
					</g>
					<g>
						<path fill="#FFFFFF" d="M46.073,101.066c-2.228,0.23-5.862,2.094-5.862,4.386v8.125c0,2.292,3.634,4.155,5.862,4.387V101.066z
							"/>
						<path fill="#477CA8" d="M47.573,119.628l-1.655-0.172c-2.587-0.269-7.207-2.463-7.207-5.879v-8.125
							c0-3.417,4.621-5.61,7.208-5.878l1.654-0.171V119.628z M44.573,102.991c-1.505,0.603-2.862,1.681-2.862,2.461v8.125
							c0,0.779,1.356,1.858,2.862,2.461V102.991z"/>
					</g>
					<g>
						<path fill="#FFFFFF" d="M63.776,122.885c1.079,1.869,2.842,3.094,4.838,3.094c1.997,0,3.759-1.225,4.837-3.094H63.776z"/>
						<path fill="#477CA8" d="M68.614,127.479c-2.453,0-4.748-1.437-6.137-3.844l2.599-1.5c0.847,1.468,2.17,2.344,3.539,2.344
							c1.389,0,2.679-0.854,3.538-2.343l2.599,1.498C73.362,126.041,71.068,127.479,68.614,127.479z"/>
					</g>
					<g>
						<path fill="#FFFFFF" d="M46.588,101.127v3.602c0,5.131,4.159,9.291,9.289,9.291c5.133,0,9.291-4.16,9.291-9.291v-3.602H46.588
							z"/>
						<path fill="#477CA8" d="M55.876,115.52c-5.949,0-10.789-4.841-10.789-10.791v-5.102h21.58v5.102
							C66.667,110.679,61.827,115.52,55.876,115.52z M48.088,102.627v2.102c0,4.296,3.494,7.791,7.789,7.791
							c4.296,0,7.791-3.495,7.791-7.791v-2.102H48.088z"/>
					</g>
					<g>
						<path fill="#FFFFFF" d="M72.375,101.127v3.602c0,5.131,4.159,9.291,9.289,9.291c5.13,0,9.289-4.16,9.289-9.291v-3.602H72.375z
							"/>
						<path fill="#477CA8" d="M81.664,115.52c-5.949,0-10.789-4.841-10.789-10.791v-5.102h21.578v5.102
							C92.453,110.679,87.613,115.52,81.664,115.52z M73.875,102.627v2.102c0,4.296,3.494,7.791,7.789,7.791
							s7.789-3.495,7.789-7.791v-2.102H73.875z"/>
					</g>
					<g>
						<path fill="#FFFFFF" d="M58.982,106.154h-3.431H58.982z"/>
						<rect x="55.552" y="104.654" fill="#477CA8" width="3.431" height="3"/>
					</g>
					<g>
						<path fill="#FFFFFF" d="M81.443,106.154h-3.275H81.443z"/>
						<rect x="78.169" y="104.654" fill="#477CA8" width="3.275" height="3"/>
					</g>
					<g>
						<path fill="#FFFFFF" d="M65.152,101.127h8.495H65.152z"/>
						<rect x="65.152" y="99.627" fill="#477CA8" width="8.495" height="3"/>
					</g>
					<g>
						<path fill="#FFFFFF" d="M67.563,153.033v23.439V153.033z"/>
						<rect x="66.063" y="153.033" fill="#477CA8" width="3" height="23.439"/>
					</g>
				</g>
			</g>
			<g>
				<path fill="#477CA8" d="M70.023,172.662c-34.462,0-62.5-28.037-62.5-62.5s28.038-62.5,62.5-62.5s62.5,28.037,62.5,62.5
					c0,13.066-3.99,25.559-11.545,36.178l5.442,20.312l-20.343-5.449C95.484,168.702,83.034,172.662,70.023,172.662z M70.023,50.662
					c-32.809,0-59.5,26.691-59.5,59.5s26.691,59.5,59.5,59.5c12.613,0,24.673-3.909,34.876-11.307l0.578-0.419l16.7,4.474
					l-4.467-16.673l0.422-0.58c7.452-10.227,11.391-22.328,11.391-34.995C129.523,77.354,102.832,50.662,70.023,50.662z"/>
			</g>
		</g>
	</g>
	<g>
		<g>
			<circle fill="#D8E9C9" cx="16.582" cy="89.228" r="15.082"/>
			<path fill="#477CA8" d="M16.581,105.81C7.438,105.81,0,98.371,0,89.228s7.438-16.582,16.581-16.582
				c9.144,0,16.583,7.438,16.583,16.582S25.725,105.81,16.581,105.81z M16.581,75.646C9.092,75.646,3,81.738,3,89.228
				s6.092,13.582,13.581,13.582c7.49,0,13.583-6.093,13.583-13.582S24.071,75.646,16.581,75.646z"/>
		</g>
		<g>
			<polygon fill="#477CA8" points="13.776,94.386 9.708,90.315 11.123,88.901 13.777,91.558 23.156,82.178 24.57,83.592 			"/>
		</g>
	</g>
	<g>
		<path fill="#B0D9EF" d="M211.876,102.562c-2.313,0-4.498-0.827-6.218-2.341l6.532-6.533h9.099
			c-0.133,2.311-1.096,4.462-2.746,6.112C216.763,101.581,214.396,102.562,211.876,102.562z"/>
		<path fill="#F5B1AE" d="M212.491,92.256v-8.532c4.652,0.293,8.35,3.892,8.771,8.532H212.491z"/>
		<g>
			<path fill="#477CA8" d="M211.839,105.533c-3.036,0-5.957-1.109-8.226-3.123l1.328-1.496c1.902,1.689,4.352,2.619,6.897,2.619
				c5.731,0,10.394-4.662,10.394-10.394c0-5.559-4.345-10.118-9.891-10.381l0.095-1.998c6.615,0.313,11.796,5.751,11.796,12.379
				C224.232,99.974,218.673,105.533,211.839,105.533z"/>
		</g>
		<g>
			<path fill="#FFFFFF" d="M202.945,99.575c-1.352-1.865-2.086-4.113-2.086-6.436c0-5.379,3.934-9.94,9.138-10.822v10.06
				L202.945,99.575z"/>
			<path fill="#477CA8" d="M208.997,83.575v8.394l-5.886,6.008c-0.815-1.47-1.252-3.131-1.252-4.837
				C201.859,88.662,204.859,84.808,208.997,83.575L208.997,83.575z M210.997,81.192c-6.223,0.433-11.138,5.614-11.138,11.947
				c0,3.047,1.14,5.826,3.013,7.939l8.125-8.294V81.192L210.997,81.192z"/>
		</g>
	</g>
	<g>
		<g>
			<rect x="170.615" y="86.646" fill="#F5B1AE" width="6.666" height="2"/>
		</g>
		<g>
			<rect x="180.365" y="86.646" fill="#477CA8" width="14.168" height="2"/>
		</g>
		<g>
			<rect x="170.615" y="92.146" fill="#B2DDC9" width="6.666" height="2"/>
		</g>
		<g>
			<rect x="180.365" y="92.146" fill="#477CA8" width="14.168" height="2"/>
		</g>
		<g>
			<rect x="170.615" y="97.646" fill="#D8E5ED" width="6.666" height="2"/>
		</g>
		<g>
			<rect x="180.365" y="97.646" fill="#477CA8" width="14.168" height="2"/>
		</g>
	</g>
	<g>
		<g>
			<polygon fill="#B0D9EF" points="229.518,165.832 169.608,165.832 169.608,106.02 170.608,106.02 170.608,164.832 
				229.518,164.832 			"/>
		</g>
		<g>
			<g>
				<rect x="170.108" y="110.887" fill="#D8E5ED" width="56.933" height="1"/>
			</g>
			<g>
				<rect x="170.108" y="118.795" fill="#D8E5ED" width="56.933" height="1"/>
			</g>
			<g>
				<rect x="170.108" y="126.703" fill="#D8E5ED" width="56.933" height="1"/>
			</g>
			<g>
				<rect x="170.108" y="134.611" fill="#D8E5ED" width="56.933" height="1"/>
			</g>
			<g>
				<rect x="170.108" y="142.52" fill="#D8E5ED" width="56.933" height="1"/>
			</g>
			<g>
				<rect x="170.108" y="150.43" fill="#D8E5ED" width="56.933" height="1"/>
			</g>
			<g>
				<rect x="170.108" y="158.338" fill="#D8E5ED" width="56.933" height="1"/>
			</g>
		</g>
		<g>
			<g>
				<g>
					<rect x="203.733" y="165.436" fill="#D8E5ED" width="1" height="3.178"/>
				</g>
				<g>
					<rect x="198.782" y="165.436" fill="#D8E5ED" width="1" height="3.178"/>
				</g>
				<g>
					<rect x="193.831" y="165.436" fill="#D8E5ED" width="1" height="3.178"/>
				</g>
				<g>
					<rect x="188.881" y="165.436" fill="#D8E5ED" width="1" height="3.178"/>
				</g>
				<g>
					<rect x="183.93" y="165.436" fill="#D8E5ED" width="1" height="3.178"/>
				</g>
				<g>
					<rect x="178.979" y="165.436" fill="#D8E5ED" width="1" height="3.178"/>
				</g>
				<g>
					<rect x="174.027" y="165.436" fill="#D8E5ED" width="1" height="3.178"/>
				</g>
			</g>
			<g>
				<g>
					<rect x="228.486" y="165.436" fill="#D8E5ED" width="1" height="3.178"/>
				</g>
				<g>
					<rect x="223.536" y="165.436" fill="#D8E5ED" width="1" height="3.178"/>
				</g>
				<g>
					<rect x="218.584" y="165.436" fill="#D8E5ED" width="1" height="3.178"/>
				</g>
				<g>
					<rect x="213.634" y="165.436" fill="#D8E5ED" width="1" height="3.178"/>
				</g>
				<g>
					<rect x="208.683" y="165.436" fill="#D8E5ED" width="1" height="3.178"/>
				</g>
			</g>
		</g>
		<g>
			<polygon fill="#F5B1AE" points="172.042,153.005 170.54,150.408 197.227,134.968 208.686,145.354 223.937,129.12 
				226.124,131.175 208.855,149.556 196.834,138.661 			"/>
		</g>
		<g>
			<polygon fill="#B0D9EF" points="198.081,146.591 186.256,135.74 172.833,144.38 171.75,142.698 186.471,133.223 197.986,143.79 
				224.306,116.125 225.755,117.504 			"/>
		</g>
	</g>
	<g>
		<path fill="#FFFFFF" d="M238.125,138.852l-0.089-0.189l-25.055,0.377c-0.006,0.18-0.027,0.35-0.023,0.527l0.066,4.168
			c0.113,6.914,5.809,12.424,12.718,12.312l2.74-0.088l3.872,11.629c-7.867,5.809-13.188,16.883-13.188,29.602
			c0,9.768,3.141,18.566,8.161,24.756h21.891v-57.99L238.125,138.852z"/>
		<path fill="#477CA8" d="M250.718,223.445h-24.105l-0.45-0.556c-5.479-6.755-8.496-15.882-8.496-25.7
			c0-12.281,4.928-23.71,12.928-30.139l-3.182-9.557l-1.876,0.055c-7.602,0-13.888-6.187-14.012-13.79l-0.066-4.169
			c-0.003-0.145,0.005-0.295,0.015-0.447l0.055-1.582l27.452-0.413l0.501,1.064l11.236,25.427V223.445z M228.053,220.445h19.665
			v-56.174l-10.646-24.095l-22.598,0.34l0.051,3.194c0.098,5.976,5.038,10.838,11.012,10.838l0.182-0.002l3.834-0.123l4.569,13.724
			l-0.876,0.647c-7.759,5.729-12.579,16.608-12.579,28.395C220.667,205.921,223.351,214.351,228.053,220.445z"/>
	</g>
	<g>
		<rect x="181.213" y="254.139" fill="#D8E5ED" width="76.981" height="34.527"/>
	</g>
	<g>
		<g>
			<rect x="183.879" y="216.805" fill="#FFFFFF" width="74.316" height="35.859"/>
			<path fill="#477CA8" d="M259.694,254.164h-77.316v-38.859h77.316V254.164z M185.378,251.164h71.316v-32.859h-71.316V251.164z"/>
		</g>
	</g>
	<path fill="#D8E5ED" d="M228.714,239.842c0,3.037-4.463,5.5-7.5,5.5c-3.037,0-3.5-2.463-3.5-5.5s2.463-5.5,5.5-5.5
		C226.25,234.342,228.714,236.805,228.714,239.842z"/>
	<g>
		<rect x="205.882" y="217.008" fill="#477CA8" width="3" height="35"/>
	</g>
	<g>
		<rect x="180.214" y="251.342" fill="#477CA8" width="3" height="38.334"/>
	</g>
	<g>
		<rect x="259.214" y="251.342" fill="#477CA8" width="3" height="19"/>
	</g>
	<g>
		<rect x="259.214" y="273.676" fill="#477CA8" width="3" height="5"/>
	</g>
	<g>
		<path fill="#477CA8" d="M141.031,31.799c3.1-1.787,5-5.047,5-8.651c0-5.515-4.487-10-10-10c-5.514,0-10,4.485-10,10
			c0,3.604,1.9,6.864,5,8.651v2.349h10V31.799z M139.031,30.582v1.565h-2v-7h1v-2h-4v2h1v7h-2v-1.565l-0.555-0.275
			c-2.742-1.365-4.445-4.108-4.445-7.159c0-4.411,3.589-8,8-8s8,3.589,8,8c0,3.051-1.703,5.794-4.446,7.159L139.031,30.582z"/>
		<rect x="131.031" y="35.147" fill="#477CA8" width="10" height="2"/>
		<path fill="#477CA8" d="M130.031,23.147h2c0-2.206,1.794-4,4-4v-2C132.723,17.147,130.031,19.839,130.031,23.147z"/>
	</g>
	<g>
		<path fill="#477CA8" d="M51.031,206.147h2c0.552,0,1,0.448,1,1h2c0-1.654-1.346-3-3-3v-1h-2v1c-1.655,0-3,1.346-3,3s1.345,3,3,3h2
			c0.552,0,1,0.448,1,1s-0.448,1-1,1h-2c-0.552,0-1-0.448-1-1h-2c0,1.654,1.345,3,3,3v1h2v-1c1.654,0,3-1.346,3-3s-1.346-3-3-3h-2
			c-0.552,0-1-0.448-1-1S50.479,206.147,51.031,206.147z"/>
		<path fill="#477CA8" d="M53.031,200.207v-3.06h-2v3.06c-4.165,0.463-7.479,3.776-7.941,7.94h-3.059v2h3.059
			c0.463,4.164,3.776,7.478,7.941,7.94v3.06h2v-3.06c4.165-0.463,7.479-3.776,7.941-7.94h3.059v-2h-3.059
			C60.51,203.983,57.196,200.67,53.031,200.207z M52.031,216.147c-3.859,0-7-3.14-7-7s3.141-7,7-7s7,3.14,7,7
			S55.891,216.147,52.031,216.147z"/>
	</g>
	<g>
		<path fill="#477CA8" d="M265.696,84.479c2.757,0,5-2.243,5-5s-2.243-5-5-5s-5,2.243-5,5S262.939,84.479,265.696,84.479z
			 M265.696,76.479c1.654,0,3,1.346,3,3s-1.346,3-3,3c-1.655,0-3-1.346-3-3S264.042,76.479,265.696,76.479z"/>
		<path fill="#477CA8" d="M281.696,91.479c0-2.757-2.243-5-5-5s-5,2.243-5,5s2.243,5,5,5S281.696,94.236,281.696,91.479z
			 M273.696,91.479c0-1.654,1.345-3,3-3c1.654,0,3,1.346,3,3s-1.346,3-3,3C275.042,94.479,273.696,93.134,273.696,91.479z"/>
		<polygon fill="#477CA8" points="273.697,76.479 279.282,76.479 260.989,94.772 262.403,96.186 280.697,77.893 280.697,83.479 
			282.697,83.479 282.697,74.479 273.697,74.479 		"/>
	</g>
</g>
</svg>
