<?xml version="1.0" encoding="utf-8"?>
<!-- Generator: Adobe Illustrator 16.0.0, SVG Export Plug-In . SVG Version: 6.00 Build 0)  -->
<!DOCTYPE svg PUBLIC "-//W3C//DTD SVG 1.1//EN" "http://www.w3.org/Graphics/SVG/1.1/DTD/svg11.dtd">
<svg version="1.1" id="Layer_4" xmlns="http://www.w3.org/2000/svg" xmlns:xlink="http://www.w3.org/1999/xlink" x="0px" y="0px"
	 width="284.739px" height="261.855px" viewBox="0 0 284.739 261.855" enable-background="new 0 0 284.739 261.855"
	 xml:space="preserve">
<g>
	<path fill="#E7F4FC" d="M96.779,261.855c-16.5,0-36.75-11.691-45-25.98L6.188,156.91c-8.25-14.29-8.25-37.673,0-51.963
		l45.591-78.966C60.029,11.691,80.279,0,96.779,0h91.182c16.5,0,36.75,11.691,45,25.981l45.591,78.966
		c8.25,14.29,8.25,37.673,0,51.963l-45.591,78.965c-8.25,14.289-28.5,25.98-45,25.98H96.779z"/>
	<g>
		<path fill="#477CA8" d="M229.324,115.927l-1.18-0.054l0.091-1.998l1.18,0.054L229.324,115.927z M224.149,115.692l-3.996-0.18
			l0.09-1.998l3.996,0.18L224.149,115.692z M216.157,115.332l-3.995-0.181l0.09-1.998l3.995,0.181L216.157,115.332z
			 M208.166,114.971l-3.996-0.181l0.09-1.998l3.996,0.181L208.166,114.971z M200.173,114.609l-3.996-0.181l0.09-1.998l3.997,0.181
			L200.173,114.609z M192.182,114.248l-3.996-0.181l0.091-1.998l3.996,0.181L192.182,114.248z M184.189,113.887l-3.996-0.181
			l0.091-1.998l3.996,0.181L184.189,113.887z M176.198,113.525l-3.996-0.181l0.091-1.998l3.996,0.181L176.198,113.525z
			 M168.207,113.164l-3.997-0.181l0.091-1.998l3.996,0.181L168.207,113.164z M160.214,112.803l-3.996-0.181l0.09-1.998l3.996,0.181
			L160.214,112.803z M152.222,112.442l-3.995-0.181l0.09-1.998l3.995,0.181L152.222,112.442z M144.231,112.081l-3.996-0.181
			l0.09-1.998l3.996,0.181L144.231,112.081z M136.239,111.72l-3.996-0.181l0.09-1.998l3.996,0.181L136.239,111.72z M128.247,111.358
			l-3.996-0.181l0.091-1.998l3.995,0.181L128.247,111.358z M120.255,110.997l-3.996-0.181l0.09-1.998l3.996,0.181L120.255,110.997z
			 M112.263,110.636l-3.996-0.181l0.091-1.998l3.996,0.181L112.263,110.636z M104.271,110.274l-3.996-0.181l0.091-1.998l3.996,0.181
			L104.271,110.274z M96.279,109.913l-3.996-0.181l0.091-1.998l3.996,0.181L96.279,109.913z M88.288,109.552l-3.996-0.18l0.09-1.998
			l3.996,0.18L88.288,109.552z M80.296,109.191l-3.996-0.181l0.09-1.998l3.996,0.181L80.296,109.191z M72.304,108.83l-3.995-0.181
			l0.09-1.998l3.996,0.181L72.304,108.83z M64.312,108.469l-3.996-0.181l0.09-1.998l3.996,0.181L64.312,108.469z M56.321,108.107
			l-3.996-0.181l0.09-1.998l3.996,0.181L56.321,108.107z"/>
	</g>
	<g>
		<path fill="#477CA8" d="M59.208,192.474l-1.676-1.092l2.183-3.352l1.676,1.092L59.208,192.474z M63.574,185.771l-1.676-1.092
			l2.183-3.353l1.676,1.092L63.574,185.771z M67.94,179.066l-1.676-1.092l2.183-3.352l1.676,1.092L67.94,179.066z M72.306,172.363
			l-1.676-1.092l2.183-3.352l1.676,1.092L72.306,172.363z M76.672,165.659l-1.676-1.092l2.183-3.352l1.676,1.092L76.672,165.659z
			 M81.038,158.956l-1.676-1.092l2.183-3.352l1.676,1.092L81.038,158.956z M85.404,152.253l-1.676-1.092l2.183-3.353l1.676,1.092
			L85.404,152.253z M89.77,145.549l-1.676-1.092l2.183-3.352l1.676,1.092L89.77,145.549z M94.136,138.846l-1.676-1.092l2.183-3.352
			l1.676,1.092L94.136,138.846z M98.502,132.142l-1.676-1.092l2.183-3.352l1.676,1.092L98.502,132.142z M102.869,125.438
			l-1.676-1.092l2.183-3.352l1.676,1.092L102.869,125.438z M107.235,118.735l-1.676-1.092l2.183-3.353l1.676,1.092L107.235,118.735z
			 M111.601,112.031l-1.676-1.092l2.183-3.352l1.676,1.092L111.601,112.031z M115.967,105.328l-1.676-1.092l2.183-3.352l1.676,1.092
			L115.967,105.328z M120.333,98.624l-1.676-1.092l2.183-3.352l1.676,1.092L120.333,98.624z M124.699,91.921l-1.676-1.092
			l2.183-3.352l1.676,1.092L124.699,91.921z M129.065,85.218l-1.676-1.092l2.183-3.353l1.676,1.092L129.065,85.218z M133.431,78.514
			l-1.676-1.092l2.183-3.352l1.676,1.092L133.431,78.514z M137.797,71.811l-1.676-1.092l2.183-3.352l1.676,1.092L137.797,71.811z
			 M142.164,65.106l-1.676-1.092l2.183-3.352l1.676,1.092L142.164,65.106z M146.53,58.403l-1.676-1.092l2.183-3.352l1.676,1.092
			L146.53,58.403z M150.896,51.7l-1.676-1.092l2.183-3.353l1.676,1.092L150.896,51.7z M155.262,44.996l-1.676-1.092l2.183-3.352
			l1.676,1.092L155.262,44.996z"/>
	</g>
	<g>
		<path fill="#477CA8" d="M57.755,195.851l-0.771-1.846l3.69-1.543l0.771,1.846L57.755,195.851z M65.137,192.766l-0.771-1.846
			l3.69-1.543l0.771,1.846L65.137,192.766z M72.518,189.68l-0.771-1.846l3.69-1.542l0.771,1.846L72.518,189.68z M79.899,186.595
			l-0.771-1.846l3.69-1.543l0.771,1.846L79.899,186.595z M87.28,183.51l-0.771-1.846l3.691-1.543l0.771,1.846L87.28,183.51z
			 M94.661,180.425l-0.771-1.846l3.69-1.543l0.771,1.846L94.661,180.425z M102.042,177.339l-0.771-1.846l3.69-1.542l0.771,1.846
			L102.042,177.339z M109.423,174.254l-0.771-1.846l3.69-1.543l0.771,1.846L109.423,174.254z M116.805,171.169l-0.771-1.846
			l3.69-1.543l0.771,1.846L116.805,171.169z M124.185,168.083l-0.771-1.846l3.691-1.542l0.771,1.846L124.185,168.083z
			 M131.567,164.998l-0.771-1.846l3.69-1.543l0.771,1.846L131.567,164.998z M138.948,161.913l-0.771-1.846l3.691-1.543l0.771,1.846
			L138.948,161.913z M146.329,158.828l-0.771-1.846l3.69-1.543l0.771,1.846L146.329,158.828z M153.71,155.742l-0.771-1.846
			l3.69-1.542l0.771,1.846L153.71,155.742z M161.091,152.657l-0.771-1.846l3.69-1.543l0.771,1.846L161.091,152.657z
			 M168.473,149.572l-0.771-1.846l3.69-1.543l0.771,1.846L168.473,149.572z M175.853,146.486l-0.771-1.846l3.691-1.542l0.771,1.846
			L175.853,146.486z M183.235,143.401l-0.771-1.846l3.69-1.543l0.771,1.846L183.235,143.401z M190.616,140.316l-0.771-1.846
			l3.691-1.543l0.771,1.846L190.616,140.316z M197.997,137.231l-0.771-1.846l3.69-1.543l0.771,1.846L197.997,137.231z
			 M205.378,134.146l-0.771-1.846l3.69-1.542l0.771,1.846L205.378,134.146z M212.759,131.061l-0.771-1.846l3.691-1.543l0.771,1.846
			L212.759,131.061z M220.141,127.976l-0.771-1.846l3.69-1.543l0.771,1.846L220.141,127.976z M227.521,124.89l-0.771-1.846
			l3.691-1.542l0.771,1.846L227.521,124.89z M234.903,121.805l-0.771-1.846l3.69-1.543l0.771,1.846L234.903,121.805z
			 M242.284,118.72l-0.771-1.846l3.69-1.543l0.771,1.846L242.284,118.72z"/>
	</g>
	<g>
		<path fill="#477CA8" d="M219.924,208.218l-1.915-0.576l1.154-3.83l1.915,0.576L219.924,208.218z M222.232,200.559l-1.915-0.578
			l1.154-3.829l1.915,0.578L222.232,200.559z M224.541,192.898l-1.915-0.576l1.154-3.83l1.915,0.576L224.541,192.898z
			 M226.849,185.238l-1.915-0.576l1.154-3.83l1.915,0.576L226.849,185.238z M229.157,177.579l-1.915-0.578l1.154-3.829l1.915,0.578
			L229.157,177.579z M231.465,169.919l-1.915-0.576l1.154-3.83l1.915,0.576L231.465,169.919z M233.773,162.259l-1.915-0.576
			l1.154-3.83l1.915,0.576L233.773,162.259z M236.081,154.6l-1.915-0.576l1.154-3.83l1.915,0.576L236.081,154.6z M238.389,146.939
			l-1.915-0.576l1.154-3.83l1.915,0.576L238.389,146.939z M240.697,139.279l-1.915-0.576l1.154-3.83l1.915,0.576L240.697,139.279z
			 M243.005,131.62l-1.915-0.576l0.725-2.404l1.915,0.576L243.005,131.62z"/>
	</g>
	<g>
		<circle fill="#FFFFFF" cx="141.064" cy="129.908" r="61"/>
		<circle fill="#B0D9EF" cx="141.064" cy="129.908" r="52"/>
		<g>
			<g>
				<defs>
					<circle id="SVGID_1_" cx="141.064" cy="129.908" r="61"/>
				</defs>
				<clipPath id="SVGID_2_">
					<use xlink:href="#SVGID_1_"  overflow="visible"/>
				</clipPath>
				<g clip-path="url(#SVGID_2_)">
					<g>
						<path fill="#FFFFFF" d="M103.064,196.787v-25.443c0-5.586,5.117-10.113,11.428-10.113h50.147
							c6.311,0,11.425,4.527,11.425,10.113v25.443H103.064z"/>
						<path fill="#477CA8" d="M177.564,196.787h-3v-25.443c0-4.749-4.452-8.613-9.925-8.613h-50.147
							c-5.475,0-9.928,3.864-9.928,8.613v25.443h-3v-25.443c0-6.403,5.8-11.613,12.928-11.613h50.147
							c7.127,0,12.925,5.21,12.925,11.613V196.787z"/>
					</g>
					<g>
						<polygon fill="#FFFFFF" points="148.94,161.334 139.34,166.877 129.739,161.334 129.739,140.373 139.34,140.373 
							148.94,140.373 						"/>
						<path fill="#477CA8" d="M139.34,168.609l-11.101-6.409v-23.327h22.201V162.2L139.34,168.609z M131.239,160.468l8.101,4.677
							l8.1-4.677v-18.595h-16.201V160.468z"/>
					</g>
					<g>
						<polygon fill="#FFFFFF" points="128.093,174.895 139.3,167.486 128.977,161.525 						"/>
						<path fill="#477CA8" d="M126.396,177.813l1.242-18.793l14.512,8.38L126.396,177.813z M130.314,164.03l-0.525,7.945l6.66-4.403
							L130.314,164.03z"/>
					</g>
					<g>
						<polygon fill="#FFFFFF" points="150.568,174.895 139.36,168.486 149.683,161.525 						"/>
						<path fill="#477CA8" d="M152.25,177.584l-15.728-8.993l14.485-9.768L152.25,177.584z M142.199,168.382l6.688,3.823
							l-0.528-7.978L142.199,168.382z"/>
					</g>
					<g>
						<path fill="#FFFFFF" d="M167.215,133.323c0,2.448-1.984,4.434-4.433,4.434h-0.37c-2.45,0-4.431-1.985-4.431-4.434v-8.125
							c0-2.449,1.981-4.433,4.431-4.433h0.37c2.448,0,4.433,1.983,4.433,4.433V133.323z"/>
						<path fill="#477CA8" d="M162.782,139.257h-0.37c-3.271,0-5.931-2.662-5.931-5.934v-8.125c0-3.271,2.661-5.933,5.931-5.933
							h0.37c3.271,0,5.933,2.661,5.933,5.933v8.125C168.715,136.595,166.054,139.257,162.782,139.257z M162.412,122.266
							c-1.616,0-2.931,1.315-2.931,2.933v8.125c0,1.617,1.315,2.934,2.931,2.934h0.37c1.617,0,2.933-1.316,2.933-2.934v-8.125
							c0-1.617-1.315-2.933-2.933-2.933H162.412z"/>
					</g>
					<g>
						<path fill="#FFFFFF" d="M162.014,134.07c0,12.398-10.051,22.447-22.449,22.447l0,0c-12.399,0-22.451-10.049-22.451-22.447
							v-17.958c0-12.397,10.051-22.447,22.451-22.447l0,0c12.397,0,22.449,10.05,22.449,22.447V134.07z"/>
						<path fill="#477CA8" d="M139.565,158.018c-13.207,0-23.951-10.743-23.951-23.947v-17.958
							c0-13.204,10.744-23.947,23.951-23.947c13.206,0,23.949,10.743,23.949,23.947v17.958
							C163.514,147.274,152.771,158.018,139.565,158.018z M139.565,95.165c-11.552,0-20.951,9.396-20.951,20.947v17.958
							c0,11.551,9.398,20.947,20.951,20.947c11.551,0,20.949-9.396,20.949-20.947v-17.958
							C160.514,104.562,151.117,95.165,139.565,95.165z"/>
					</g>
					<g>
						<path fill="#D8E5ED" d="M131.549,92.446c-3.633,0-6.826,1.87-8.683,4.696h-3.565c-4.443,0-8.048,3.602-8.048,8.049v38.701
							h5.663V116.99c0-3.129,2.537-5.664,5.665-5.664h3.303h27.848h5.191c5.736,0,10.384-4.649,10.384-10.385v-8.495H131.549z"/>
						<path fill="#477CA8" d="M118.417,145.393h-8.663v-40.201c0-5.266,4.283-9.549,9.548-9.549h2.79
							c2.246-2.955,5.723-4.696,9.458-4.696h39.259v9.995c0,6.554-5.331,11.885-11.884,11.885h-36.342
							c-2.296,0-4.165,1.868-4.165,4.164V145.393z M112.753,142.393h2.663V116.99c0-3.95,3.214-7.164,7.165-7.164h36.342
							c4.899,0,8.884-3.985,8.884-8.885v-6.995h-36.259c-2.998,0-5.775,1.503-7.429,4.02l-0.444,0.677h-4.374
							c-3.611,0-6.548,2.938-6.548,6.549V142.393z"/>
					</g>
					<g>
						<path fill="#FFFFFF" d="M117.115,120.812c-2.228,0.23-5.861,2.094-5.861,4.386v8.125c0,2.292,3.634,4.155,5.861,4.387V120.812
							z"/>
						<path fill="#477CA8" d="M118.615,139.374l-1.655-0.172c-2.586-0.269-7.207-2.463-7.207-5.879v-8.125
							c0-3.417,4.621-5.61,7.207-5.878l1.654-0.171V139.374z M115.615,122.737c-1.505,0.603-2.861,1.681-2.861,2.461v8.125
							c0,0.779,1.356,1.858,2.861,2.461V122.737z"/>
					</g>
					<g>
						<path fill="#FFFFFF" d="M134.818,142.631c1.079,1.869,2.842,3.094,4.838,3.094c1.997,0,3.759-1.225,4.837-3.094H134.818z"/>
						<path fill="#477CA8" d="M139.656,147.225c-2.453,0-4.748-1.437-6.137-3.844l2.598-1.5c0.848,1.468,2.17,2.344,3.539,2.344
							c1.369,0,2.691-0.876,3.538-2.343l2.599,1.498C144.404,145.787,142.11,147.225,139.656,147.225z"/>
					</g>
					<g>
						<path fill="#FFFFFF" d="M117.629,120.873v3.602c0,5.131,4.159,9.291,9.29,9.291c5.132,0,9.291-4.16,9.291-9.291v-3.602
							H117.629z"/>
						<path fill="#477CA8" d="M126.919,135.266c-5.949,0-10.79-4.841-10.79-10.791v-5.102h21.58v5.102
							C137.709,130.425,132.869,135.266,126.919,135.266z M119.129,122.373v2.102c0,4.296,3.494,7.791,7.79,7.791
							c4.296,0,7.791-3.495,7.791-7.791v-2.102H119.129z"/>
					</g>
					<g>
						<path fill="#FFFFFF" d="M143.416,120.873v3.602c0,5.131,4.16,9.291,9.29,9.291c5.13,0,9.29-4.16,9.29-9.291v-3.602H143.416z"
							/>
						<path fill="#477CA8" d="M152.706,135.266c-5.949,0-10.79-4.841-10.79-10.791v-5.102h21.579v5.102
							C163.495,130.425,158.655,135.266,152.706,135.266z M144.916,122.373v2.102c0,4.296,3.494,7.791,7.79,7.791
							s7.79-3.495,7.79-7.791v-2.102H144.916z"/>
					</g>
					<g>
						<path fill="#FFFFFF" d="M130.024,125.9h-3.431H130.024z"/>
						<rect x="126.593" y="124.4" fill="#477CA8" width="3.431" height="3"/>
					</g>
					<g>
						<path fill="#FFFFFF" d="M152.485,125.9h-3.274H152.485z"/>
						<rect x="149.21" y="124.4" fill="#477CA8" width="3.274" height="3"/>
					</g>
					<g>
						<path fill="#FFFFFF" d="M136.193,120.873h8.496H136.193z"/>
						<rect x="136.193" y="119.373" fill="#477CA8" width="8.496" height="3"/>
					</g>
					<g>
						<path fill="#FFFFFF" d="M138.605,172.779v23.439V172.779z"/>
						<rect x="137.105" y="172.779" fill="#477CA8" width="3" height="23.439"/>
					</g>
				</g>
			</g>
			<g>
				<path fill="#477CA8" d="M141.064,192.408c-34.462,0-62.5-28.037-62.5-62.5s28.038-62.5,62.5-62.5s62.5,28.037,62.5,62.5
					S175.527,192.408,141.064,192.408z M141.064,70.408c-32.809,0-59.5,26.691-59.5,59.5s26.691,59.5,59.5,59.5
					s59.5-26.691,59.5-59.5S173.873,70.408,141.064,70.408z"/>
			</g>
		</g>
	</g>
	<g>
		<path fill="#477CA8" d="M160.315,40.524c-4.549,0-8.25-3.7-8.25-8.249s3.701-8.25,8.25-8.25s8.25,3.701,8.25,8.25
			S164.864,40.524,160.315,40.524z M160.315,27.025c-2.895,0-5.25,2.355-5.25,5.25s2.355,5.249,5.25,5.249s5.25-2.354,5.25-5.249
			S163.21,27.025,160.315,27.025z"/>
	</g>
	<g>
		<path fill="#477CA8" d="M41.32,115.989c-6.875,0-12.468-5.593-12.468-12.468s5.593-12.469,12.468-12.469
			c6.875,0,12.468,5.594,12.468,12.469S48.195,115.989,41.32,115.989z M41.32,94.053c-5.221,0-9.468,4.248-9.468,9.469
			s4.248,9.468,9.468,9.468s9.468-4.247,9.468-9.468S46.541,94.053,41.32,94.053z"/>
	</g>
	<circle fill="#F5B1AE" cx="41.32" cy="103.521" r="5.998"/>
	<g>
		<path fill="#477CA8" d="M216.37,231.396c-6.875,0-12.468-5.594-12.468-12.469c0-6.874,5.593-12.467,12.468-12.467
			c6.875,0,12.468,5.593,12.468,12.467C228.837,225.803,223.244,231.396,216.37,231.396z M216.37,209.461
			c-5.221,0-9.468,4.247-9.468,9.467c0,5.221,4.248,9.469,9.468,9.469s9.468-4.248,9.468-9.469
			C225.837,213.708,221.59,209.461,216.37,209.461z"/>
	</g>
	<circle fill="#B2DDC9" cx="216.369" cy="218.928" r="5.998"/>
	<g>
		<g>
			<path fill="#FFFFFF" d="M57.779,209.02c-9.046,0-16.406-7.359-16.406-16.406s7.36-16.406,16.406-16.406
				s16.406,7.359,16.406,16.406S66.825,209.02,57.779,209.02z"/>
			<path fill="#477CA8" d="M57.779,177.707c8.219,0,14.906,6.686,14.906,14.906c0,8.219-6.687,14.906-14.906,14.906
				s-14.906-6.688-14.906-14.906C42.873,184.393,49.56,177.707,57.779,177.707L57.779,177.707z M57.779,174.707
				c-9.888,0-17.906,8.018-17.906,17.906s8.019,17.906,17.906,17.906c9.889,0,17.906-8.018,17.906-17.906
				S67.667,174.707,57.779,174.707L57.779,174.707z"/>
		</g>
		<g>
			<circle fill="#D8E5ED" cx="57.779" cy="190.518" r="6.29"/>
			<path fill="#477CA8" d="M57.78,198.307c-4.296,0-7.791-3.494-7.791-7.789c0-4.296,3.495-7.791,7.791-7.791
				c4.295,0,7.789,3.495,7.789,7.791C65.569,194.812,62.075,198.307,57.78,198.307z M57.78,185.727
				c-2.642,0-4.791,2.149-4.791,4.791c0,2.641,2.149,4.789,4.791,4.789c2.641,0,4.789-2.148,4.789-4.789
				C62.569,187.876,60.42,185.727,57.78,185.727z"/>
		</g>
		<g>
			<path fill="#D8E5ED" d="M53.061,197.506h9.435c3.475,0,6.292,2.816,6.292,6.289v0.512c-2.878,2.711-6.744,4.381-11.008,4.381
				c-4.266,0-8.132-1.67-11.008-4.381v-0.512C46.772,200.322,49.587,197.506,53.061,197.506z"/>
			<path fill="#477CA8" d="M57.78,210.188c-4.485,0-8.76-1.701-12.037-4.789l-0.471-0.444v-1.159c0-4.295,3.494-7.789,7.789-7.789
				h9.435c4.296,0,7.792,3.494,7.792,7.789v1.159l-0.472,0.444C66.538,208.486,62.263,210.188,57.78,210.188z M48.274,203.643
				c2.649,2.291,6,3.545,9.505,3.545c3.503,0,6.854-1.255,9.505-3.545c-0.081-2.57-2.198-4.637-4.79-4.637h-9.435
				C50.471,199.006,48.355,201.072,48.274,203.643z"/>
		</g>
	</g>
	<g>
		<g>
			<path fill="#FFFFFF" d="M245.087,131.441c-9.046,0-16.406-7.359-16.406-16.406s7.36-16.406,16.406-16.406
				s16.406,7.359,16.406,16.406S254.134,131.441,245.087,131.441z"/>
			<path fill="#477CA8" d="M245.087,100.129c8.219,0,14.906,6.688,14.906,14.906c0,8.221-6.687,14.906-14.906,14.906
				s-14.906-6.686-14.906-14.906C230.181,106.816,236.868,100.129,245.087,100.129L245.087,100.129z M245.087,97.129
				c-9.888,0-17.906,8.018-17.906,17.906s8.019,17.906,17.906,17.906c9.889,0,17.906-8.018,17.906-17.906
				S254.976,97.129,245.087,97.129L245.087,97.129z"/>
		</g>
		<g>
			<circle fill="#D8E5ED" cx="245.087" cy="112.939" r="6.29"/>
			<path fill="#477CA8" d="M245.088,120.729c-4.296,0-7.791-3.494-7.791-7.789s3.495-7.789,7.791-7.789
				c4.295,0,7.789,3.494,7.789,7.789S249.383,120.729,245.088,120.729z M245.088,108.15c-2.642,0-4.791,2.148-4.791,4.789
				s2.149,4.789,4.791,4.789c2.641,0,4.789-2.148,4.789-4.789S247.729,108.15,245.088,108.15z"/>
		</g>
		<g>
			<path fill="#D8E5ED" d="M240.37,119.928h9.435c3.475,0,6.292,2.816,6.292,6.291v0.51c-2.878,2.711-6.744,4.381-11.008,4.381
				c-4.266,0-8.132-1.67-11.008-4.381v-0.51C234.081,122.744,236.896,119.928,240.37,119.928z"/>
			<path fill="#477CA8" d="M245.088,132.609c-4.485,0-8.76-1.701-12.037-4.789l-0.471-0.444v-1.157c0-4.296,3.494-7.791,7.789-7.791
				h9.435c4.296,0,7.792,3.495,7.792,7.791v1.157l-0.472,0.444C253.846,130.908,249.572,132.609,245.088,132.609z M235.583,126.064
				c2.649,2.291,6,3.545,9.505,3.545c3.503,0,6.854-1.254,9.505-3.545c-0.082-2.571-2.199-4.637-4.79-4.637h-9.435
				C237.78,121.428,235.665,123.494,235.583,126.064z"/>
		</g>
	</g>
	<g>
		<path fill="#477CA8" d="M49.867,98.026l-0.994-1.736l3.471-1.987l0.994,1.736L49.867,98.026z M56.809,94.051l-0.994-1.736
			l3.471-1.987l0.994,1.736L56.809,94.051z M63.751,90.076l-0.994-1.736l3.471-1.988l0.994,1.736L63.751,90.076z M70.694,86.101
			L69.7,84.364l3.471-1.987l0.994,1.736L70.694,86.101z M77.636,82.125l-0.994-1.736l3.471-1.987l0.994,1.736L77.636,82.125z
			 M84.579,78.15l-0.994-1.736l3.472-1.988l0.994,1.736L84.579,78.15z M91.521,74.175l-0.994-1.736l3.471-1.987l0.994,1.736
			L91.521,74.175z M98.464,70.199l-0.994-1.736l3.471-1.987l0.994,1.736L98.464,70.199z M105.406,66.225l-0.994-1.736l3.471-1.988
			l0.994,1.736L105.406,66.225z M112.349,62.249l-0.994-1.736l3.471-1.987l0.994,1.736L112.349,62.249z M119.291,58.273
			l-0.994-1.736l3.471-1.987l0.994,1.736L119.291,58.273z M126.233,54.299l-0.994-1.736l3.471-1.988l0.994,1.736L126.233,54.299z
			 M133.176,50.323l-0.994-1.736l3.471-1.987l0.994,1.736L133.176,50.323z M140.118,46.348l-0.994-1.736l3.471-1.987l0.994,1.736
			L140.118,46.348z M147.061,42.373l-0.994-1.736l3.471-1.988l0.994,1.736L147.061,42.373z M154.003,38.397l-0.994-1.736
			l2.797-1.602l0.994,1.736L154.003,38.397z"/>
	</g>
	<g>
		<path fill="#477CA8" d="M231.657,104.77l-2.804-2.853l1.426-1.402l2.804,2.853L231.657,104.77z M226.048,99.064l-2.804-2.853
			l1.427-1.402l2.804,2.853L226.048,99.064z M220.44,93.359l-2.804-2.853l1.426-1.402l2.804,2.853L220.44,93.359z M214.832,87.654
			l-2.804-2.853l1.427-1.402l2.804,2.853L214.832,87.654z M209.224,81.949l-2.804-2.853l1.426-1.402l2.804,2.853L209.224,81.949z
			 M203.616,76.244l-2.804-2.853l1.426-1.402l2.804,2.853L203.616,76.244z M198.008,70.539l-2.804-2.853l1.426-1.402l2.804,2.853
			L198.008,70.539z M192.399,64.834l-2.804-2.853l1.426-1.402l2.804,2.853L192.399,64.834z M186.791,59.129l-2.804-2.853
			l1.427-1.402l2.804,2.853L186.791,59.129z M181.183,53.424l-2.804-2.853l1.426-1.402l2.804,2.853L181.183,53.424z M175.574,47.719
			l-2.804-2.853l1.427-1.402l2.804,2.853L175.574,47.719z M169.967,42.014l-2.804-2.853l1.426-1.402l2.804,2.853L169.967,42.014z"/>
	</g>
	<g>
		<path fill="#477CA8" d="M51.583,174.601l-0.693-3.939l1.97-0.346l0.693,3.939L51.583,174.601z M50.197,166.722l-0.693-3.939
			l1.97-0.346l0.693,3.939L50.197,166.722z M48.812,158.843l-0.693-3.94l1.97-0.346l0.693,3.94L48.812,158.843z M47.427,150.963
			l-0.693-3.939l1.97-0.346l0.693,3.939L47.427,150.963z M46.041,143.084l-0.692-3.939l1.97-0.346l0.692,3.939L46.041,143.084z
			 M44.656,135.205l-0.692-3.939l1.97-0.346l0.692,3.939L44.656,135.205z M43.271,127.326l-0.692-3.94l1.97-0.346l0.692,3.94
			L43.271,127.326z M41.885,119.446l-0.692-3.939l1.97-0.346l0.692,3.939L41.885,119.446z"/>
	</g>
	<g>
		<path fill="#477CA8" d="M204.88,217.725l-3.959-0.57l0.285-1.98l3.959,0.57L204.88,217.725z M196.962,216.584l-3.959-0.569
			l0.285-1.98l3.959,0.569L196.962,216.584z M189.044,215.444l-3.959-0.569l0.284-1.98l3.959,0.569L189.044,215.444z
			 M181.126,214.305l-3.959-0.569l0.284-1.98l3.959,0.569L181.126,214.305z M173.207,213.165l-3.959-0.57l0.285-1.98l3.959,0.57
			L173.207,213.165z M165.289,212.025l-3.959-0.57l0.285-1.98l3.959,0.57L165.289,212.025z M157.37,210.886l-3.959-0.57l0.285-1.98
			l3.959,0.57L157.37,210.886z M149.452,209.746l-3.959-0.57l0.285-1.98l3.959,0.57L149.452,209.746z M141.533,208.606l-3.959-0.57
			l0.285-1.98l3.959,0.57L141.533,208.606z M133.616,207.466l-3.96-0.569l0.285-1.98l3.959,0.569L133.616,207.466z M125.697,206.326
			l-3.959-0.569l0.284-1.98l3.959,0.569L125.697,206.326z M117.779,205.187l-3.959-0.569l0.284-1.98l3.959,0.569L117.779,205.187z
			 M109.86,204.047l-3.959-0.57l0.285-1.98l3.959,0.57L109.86,204.047z M101.941,202.907l-3.959-0.57l0.285-1.98l3.959,0.57
			L101.941,202.907z M94.023,201.768l-3.959-0.57l0.285-1.98l3.959,0.57L94.023,201.768z M86.104,200.628l-3.959-0.57l0.285-1.98
			l3.959,0.57L86.104,200.628z M78.186,199.488l-3.959-0.57l0.285-1.98l3.959,0.57L78.186,199.488z"/>
	</g>
</g>
</svg>
